<?xml version="1.0" encoding="UTF-8"?>
<svg id="Capa_1" xmlns="http://www.w3.org/2000/svg" version="1.1" viewBox="0 0 400 400">
  <!-- Generator: Adobe Illustrator 29.0.1, SVG Export Plug-In . SVG Version: 2.1.0 Build 192)  -->
  <g id="drTeAZ.tif">
    <path d="M16.4,391.6c-8.6-3.7-8.4-10.1-7.9-18.3,1.5-22.4,13.7-45.7,30.3-60.5,26.7-23.8,64.6-24.3,97.1-35.1l4.7-18.8c-14.2-15.9-23.9-34.8-27.9-55.8-6.5-4.7-12.8-6.5-16.6-14.3s-7.6-40.2-6.5-47.8,7.7-16.6,15.7-20.4c-5-40.9-5.8-77.9,40.1-91.4,12.5-3.7,23.5-2.6,35-5,3-.6,9.9-5.6,13.7-7.2,25.6-11.1,67.3-12.8,91.5,2.3,18.2,11.3,33.5,37.3,24.4,58.7-2.4,5.7-12.4,15.1-13,17-.5,1.8-1.1,13.7-1.2,16.7-.1,2.9,0,5.9.2,8.9,7.5,4.8,13.6,12.1,14.7,21.2.9,7.6-3.4,40.3-6.7,46.9-3.8,7.8-13.2,10.6-14.6,13.3s-2.8,12.5-4.2,16.7c-2.3,6.8-6.2,14.9-9.8,21.1s-14.8,18.9-15.2,20.8,2.7,16.9,5.8,17.7c47.8,12.5,97.8,15.4,119,67.6,4.5,11.2,13.6,39.7-1.2,45.6H16.4Z"/>
  </g>
</svg>