<?xml version="1.0" encoding="UTF-8"?>
<svg id="Capa_1" xmlns="http://www.w3.org/2000/svg" version="1.1" viewBox="0 0 400 400">
  <!-- Generator: Adobe Illustrator 29.0.1, SVG Export Plug-In . SVG Version: 2.1.0 Build 192)  -->
  <g id="HCIVY3.tif">
    <path d="M20.3,391.7c-8.5-3.7-8.4-10.1-7.9-18.3,2.3-33.8,26.2-65,57.5-77.2,9.8-3.8,68.2-15.8,70.2-18.8s2.4-8.9,1.9-9.3c-13.3-1.7-27.1-5.3-39.7-9.7s-22.7-8.3-25.6-13.3c-5.2-9.2,3.4-13.7,8.2-20.5,34.3-49.1,8.7-113.5,39.3-165.2,22.1-37.4,77.3-68,117.5-40,1.9,1.3,4,4.7,5.8,5.2,2.8.8,7.1,0,10.5.5,43.8,6.5,42,82.8,43.7,115,1.5,29.1,4.3,59.9,21.2,84.6s14.4,12.6,7.3,21.7c-4.7,6-30.3,14.1-38.5,16.4-8.4,2.4-17.3,4.7-26,5.5-.5.5,1.2,8.3,1.9,9.3,2,3.1,60.4,15.1,70.2,18.8,31.3,12.2,55.2,43.4,57.5,77.2.6,8.3.7,14.6-7.9,18.3H20.3Z"/>
  </g>
</svg>