<?xml version="1.0" encoding="utf-8"?>
<!-- Generator: Adobe Illustrator 27.2.0, SVG Export Plug-In . SVG Version: 6.00 Build 0)  -->
<svg version="1.1" id="Capa_1" xmlns="http://www.w3.org/2000/svg" xmlns:xlink="http://www.w3.org/1999/xlink" x="0px" y="0px"
	 viewBox="0 0 100 100" style="enable-background:new 0 0 100 100;" xml:space="preserve">
<style type="text/css">
	.st0{fill:#BDEB00;}
	.st1{fill:#FFFFFF;}
</style>
<g>
	<path d="M-86-204.2l4-25.2h-13.6l1.2-7.8h37.5l-1.2,7.8h-13.6l-4,25.2H-86z"/>
	<path d="M-58-221.9c0.8-5.4,3.5-15.8,23.9-15.8h1.9c17.8,0,21.6,8.5,21.6,14.4c0,1.2,0,2.4-0.2,3.6c-0.8,5.7-3.5,16.1-23.9,16.1
		h-1.9c-18,0-21.6-8.7-21.6-14.6C-58.2-219.2-58.2-220.4-58-221.9z M-47.4-221.1c0,0.6,0,1,0,1.5c0,3.6,2.2,8,12.2,8
		c10.8,0,13.4-4.9,13.9-8.9c0.1-0.7,0.1-1.2,0.1-1.8c0-3.6-2.5-7.5-12.3-7.5C-44.5-229.8-47.1-224.9-47.4-221.1z"/>
	<path d="M-0.4-204.2l4-25.2h-13.6l1.2-7.8h37.5l-1.2,7.8H13.8l-4,25.2H-0.4z"/>
	<path d="M52.2-210.2H32.6l-3.7,6H18.5l20.8-33h13l12.6,33H54.4L52.2-210.2z M49.4-217.6L44.9-230l-7.7,12.4H49.4z"/>
	<path d="M81.4-237.2l-3.9,24.8h22.1l-1.3,8.2H66.1l5.2-33H81.4z"/>
	<path d="M154.4-237.2l-1.5,9.2h-21.8l-0.4,2.7h21.5l-1.5,9.2h-21.5l-1.9,11.9h-16.2l5.2-33H154.4z"/>
	<path d="M169.1-204.2h-16.5l5.2-33h16.5L169.1-204.2z"/>
	<path d="M189.7-225.8h-13.9l1.8-11.4h44.2l-1.8,11.4h-13.9l-3.4,21.6h-16.5L189.7-225.8z"/>
	<path d="M243.3-237.2l12.8,15l2.4-15h16.5l-5.2,33h-16.5l-14.3-16.5l-2.6,16.5h-16.5l5.2-33H243.3z"/>
	<path d="M317.3-237.2l-1.5,9.2h-22.4l-0.4,2.6h22.2l-1.5,9h-22.2l-0.4,2.8h22.7l-1.5,9.3h-38.9l5.2-33H317.3z"/>
	<path d="M316.1-215.4h19.3c0,1.4,0.2,3.5,4.8,3.5c4.3,0,5.1-1.3,5.1-2.4c0-1.3-0.7-2.1-6-2.4l-5.5-0.3c-12.2-0.7-15-5.1-15-10.2
		c0-0.7,0.1-1.6,0.3-2.2c1.3-5.8,7.2-8.4,21.9-8.4h5.5c18.9,0,20.3,6.1,19.8,10.6h-18.9c0-1.2-0.4-2.7-4.7-2.7
		c-3.9,0-4.9,0.5-4.9,1.7c0,1.2,1,1.8,6.1,2l5.4,0.3c12.1,0.6,16.1,3.3,16.1,9.3c0,0.8,0,1.7-0.1,2.3c-0.8,5.9-5.1,10.6-23.3,10.6
		h-5.7C316.6-203.5,315.6-211.3,316.1-215.4z"/>
	<path d="M367.3-215.4h19.3c0,1.4,0.2,3.5,4.8,3.5c4.3,0,5.1-1.3,5.1-2.4c0-1.3-0.7-2.1-6-2.4l-5.5-0.3c-12.2-0.7-15-5.1-15-10.2
		c0-0.7,0.1-1.6,0.3-2.2c1.3-5.8,7.2-8.4,21.9-8.4h5.5c18.9,0,20.3,6.1,19.8,10.6h-18.9c0-1.2-0.4-2.7-4.7-2.7
		c-3.9,0-4.9,0.5-4.9,1.7c0,1.2,1,1.8,6.1,2l5.4,0.3c12.1,0.6,16.1,3.3,16.1,9.3c0,0.8,0,1.7-0.1,2.3c-0.8,5.9-5.1,10.6-23.3,10.6
		h-5.7C367.8-203.5,366.8-211.3,367.3-215.4z"/>
</g>
<path class="st0" d="M615.7-235h-53.1c-6.4,0-11.6,5.1-11.6,11.5v52.9c0,6.4,5.2,11.5,11.6,11.5h53.1c6.4,0,11.6-5.1,11.6-11.5
	v-52.9C627.3-229.8,622.1-235,615.7-235z"/>
<path class="st1" d="M650.2,83.3c5.9-5.4,10.7-10,14.5-13.9c3.8-3.9,6.8-7.3,9-10.2c2.2-2.9,3.8-5.5,4.7-7.8
	c0.9-2.3,1.3-4.5,1.3-6.8c0-3.8-1.2-7-3.7-9.5c-2.4-2.5-5.6-3.7-9.4-3.7c-3,0-5.8,0.9-8.3,2.7c-2.5,1.8-4.6,4.4-6.2,7.7H648
	c-1.5-3.3-3.5-5.8-6.1-7.7c-2.5-1.9-5.3-2.8-8.3-2.8c-3.8,0-6.9,1.2-9.4,3.7c-2.4,2.5-3.7,5.6-3.7,9.5c0,2.2,0.4,4.5,1.3,6.8
	c0.9,2.3,2.5,4.9,4.7,7.8c2.2,2.9,5.3,6.3,9.1,10.2C639.6,73.3,644.4,77.9,650.2,83.3L650.2,83.3z M650.2,90.2l-3.6-3.2
	c-6.1-5.7-11.2-10.5-15.2-14.6s-7.2-7.8-9.6-11c-2.4-3.2-4.1-6.2-5-8.8c-1-2.6-1.4-5.3-1.4-7.9c0-5.2,1.8-9.6,5.3-13.1
	c3.5-3.5,7.8-5.3,13-5.3c3.3,0,6.4,0.8,9.2,2.4c2.8,1.6,5.3,3.8,7.4,6.8c2.4-3.1,5-5.4,7.8-6.9c2.7-1.5,5.7-2.2,8.8-2.2
	c5.2,0,9.5,1.8,13,5.3c3.5,3.5,5.3,7.9,5.3,13.1c0,2.7-0.5,5.3-1.4,7.9c-1,2.6-2.6,5.5-5,8.8c-2.4,3.2-5.6,6.9-9.6,11
	s-9.1,9-15.2,14.6L650.2,90.2L650.2,90.2z"/>
<path class="st1" d="M269.3,58.2c4.8,0,8.9-1.7,12.3-5.1c3.4-3.4,5-7.5,5-12.3c0-4.8-1.7-8.9-5-12.3c-3.4-3.4-7.5-5.1-12.3-5.1
	c-4.8,0-9,1.7-12.4,5.1c-3.4,3.4-5.1,7.5-5.1,12.3c0,4.8,1.7,8.9,5.1,12.3C260.3,56.5,264.4,58.2,269.3,58.2z M306.5,82l-23.4-23.3
	c-1.8,1.5-3.8,2.7-6.2,3.6c-2.4,0.9-4.9,1.3-7.6,1.3c-6.4,0-11.8-2.2-16.3-6.7c-4.4-4.4-6.7-9.8-6.7-16.1c0-6.3,2.2-11.6,6.7-16.1
	c4.4-4.4,9.8-6.7,16.1-6.7c6.3,0,11.7,2.2,16.1,6.7c4.4,4.4,6.6,9.8,6.6,16.1c0,2.5-0.4,5-1.2,7.4c-0.8,2.4-2.1,4.6-3.7,6.7
	l23.4,23.3L306.5,82L306.5,82z"/>
<path d="M370.6,90.2V47.5l28.6-21.3l28.6,21.3v42.6h-24.1V68h-8.9v22.2H370.6L370.6,90.2z M375.9,84.8h13.4V62.6H409v22.2h13.4V50.2
	l-23.2-17.3l-23.2,17.3L375.9,84.8L375.9,84.8z"/>
<path class="st1" d="M21.4,82V39.3L50,18l28.6,21.3V82H54.5V59.8h-8.9V82H21.4L21.4,82z M26.8,76.6h13.4V54.4h19.6v22.2h13.4V42
	L50,24.7L26.8,42L26.8,76.6L26.8,76.6z"/>
<polygon class="st1" points="222.7,82 190.8,50 222.7,18 227.2,22.6 199.8,50 227.2,77.4 "/>
<g id="UNbzRL.tif_00000048460307627378084110000011093611230882854582_">
	<g>
		<path class="st1" d="M823.7,60.3c0.2-1.3,0.3-2.6,0.6-3.8c2-9.8,7.4-17.1,16.1-21.9c5.1-2.8,10.5-3.9,16.3-3.7
			c13.5,0.6,25.1,9.8,28.8,22.8c0.6,2,0.7,4,1.1,6c0,0.2,0.1,0.4,0.1,0.6c0,1.4,0,2.7,0,4.1c0,0.2-0.1,0.4-0.1,0.6
			c-0.3,1.9-0.5,3.9-1.1,5.8c-3.8,12.3-12,19.8-24.5,22.5c-1.2,0.3-2.5,0.4-3.7,0.6c-1.4,0-2.7,0-4.1,0c-0.2,0-0.3-0.1-0.5-0.1
			c-4.3-0.3-8.4-1.5-12.2-3.6c-8.8-4.8-14.2-12.1-16.2-22c-0.3-1.3-0.4-2.5-0.6-3.8C823.7,63.1,823.7,61.7,823.7,60.3z M882.7,62.4
			c0.1-15.1-12.2-27.4-27.4-27.5c-15.1-0.1-27.4,12.2-27.5,27.4c-0.1,15.1,12.3,27.5,27.5,27.6C870.3,89.9,882.6,77.6,882.7,62.4z"
			/>
		<path class="st1" d="M863.4,18.9c1.3,0.6,1.7,1.5,1.6,2.9c0,0.3,0,0.5,0,0.8c0,1.5-0.8,2.4-2.4,2.5c-0.1,0-0.3,0-0.5,0
			c0,0.4,0,0.9,0,1.3c0,1.5-0.5,1.9-2,1.8c-1.7-0.1-3.5-0.3-5.3-0.3c-1.6,0-3.2,0.2-4.8,0.3c-1.1,0.1-1.7-0.3-1.7-1.5
			c0-0.5,0-1.1,0-1.6c-0.1-0.1-0.1-0.1-0.2-0.1c-2.1-0.1-2.7-0.8-2.7-2.9c0-0.4,0-0.7,0-1.1c0-1.1,0.7-1.7,1.6-2.1
			C852.4,18.9,857.9,18.9,863.4,18.9z"/>
		<path class="st1" d="M883.1,34.6c-0.2,0.4-0.3,0.6-0.4,0.8c-0.4,0.5-0.7,1.1-1.1,1.6c-0.8,1.1-1.6,1.2-2.6,0.3
			c-2-1.8-4.2-3.4-6.5-4.8c-0.6-0.3-1.2-0.6-1.8-1c-0.9-0.5-1.1-1.1-0.6-2c0.5-0.8,1.1-1.6,1.7-2.4c0.3-0.5,0.8-0.4,1.2-0.1
			c0.8,0.5,1.6,1.1,2.3,1.6c2.4,1.6,4.7,3.3,7.1,5C882.6,33.9,882.8,34.3,883.1,34.6z"/>
		<path class="st1" d="M855.2,50.9c0-3,0-5.9,0-8.9c0-1.7,0.7-2.3,2.4-2.1c4.6,0.6,8.8,2.2,12.4,5.2c4.1,3.4,6.3,8,7.3,13.2
			c0.1,0.6,0.2,1.2,0.3,1.8c0.1,1.4-0.6,2.3-2.1,2.3c-6,0-12,0-17.9,0c-1.6,0-2.4-0.8-2.4-2.4C855.2,56.9,855.2,53.9,855.2,50.9z"/>
	</g>
</g>
</svg>
