<?xml version="1.0" encoding="utf-8"?>
<!-- Generator: Adobe Illustrator 27.2.0, SVG Export Plug-In . SVG Version: 6.00 Build 0)  -->
<svg version="1.1" id="Capa_1" xmlns="http://www.w3.org/2000/svg" xmlns:xlink="http://www.w3.org/1999/xlink" x="0px" y="0px"
	 viewBox="0 0 100 100" style="enable-background:new 0 0 100 100;" xml:space="preserve">
<style type="text/css">
	.st0{fill:#BDEB00;}
	.st1{fill:#FFFFFF;}
</style>
<g>
	<path d="M-86-204.2l4-25.2h-13.6l1.2-7.8h37.5l-1.2,7.8h-13.6l-4,25.2H-86z"/>
	<path d="M-58-221.9c0.8-5.4,3.5-15.8,23.9-15.8h1.9c17.8,0,21.6,8.5,21.6,14.4c0,1.2,0,2.4-0.2,3.6c-0.8,5.7-3.5,16.1-23.9,16.1
		h-1.9c-18,0-21.6-8.7-21.6-14.6C-58.2-219.2-58.2-220.4-58-221.9z M-47.4-221.1c0,0.6,0,1,0,1.5c0,3.6,2.2,8,12.2,8
		c10.8,0,13.4-4.9,13.9-8.9c0.1-0.7,0.1-1.2,0.1-1.8c0-3.6-2.5-7.5-12.3-7.5C-44.5-229.8-47.1-224.9-47.4-221.1z"/>
	<path d="M-0.4-204.2l4-25.2h-13.6l1.2-7.8h37.5l-1.2,7.8H13.8l-4,25.2H-0.4z"/>
	<path d="M52.2-210.2H32.6l-3.7,6H18.5l20.8-33h13l12.6,33H54.4L52.2-210.2z M49.4-217.6L44.9-230l-7.7,12.4H49.4z"/>
	<path d="M81.4-237.2l-3.9,24.8h22.1l-1.3,8.2H66.1l5.2-33H81.4z"/>
	<path d="M154.4-237.2l-1.5,9.2h-21.8l-0.4,2.7h21.5l-1.5,9.2h-21.5l-1.9,11.9h-16.2l5.2-33H154.4z"/>
	<path d="M169.1-204.2h-16.5l5.2-33h16.5L169.1-204.2z"/>
	<path d="M189.7-225.8h-13.9l1.8-11.4h44.2l-1.8,11.4h-13.9l-3.4,21.6h-16.5L189.7-225.8z"/>
	<path d="M243.3-237.2l12.8,15l2.4-15h16.5l-5.2,33h-16.5l-14.3-16.5l-2.6,16.5h-16.5l5.2-33H243.3z"/>
	<path d="M317.3-237.2l-1.5,9.2h-22.4l-0.4,2.6h22.2l-1.5,9h-22.2l-0.4,2.8h22.7l-1.5,9.3h-38.9l5.2-33H317.3z"/>
	<path d="M316.1-215.4h19.3c0,1.4,0.2,3.5,4.8,3.5c4.3,0,5.1-1.3,5.1-2.4c0-1.3-0.7-2.1-6-2.4l-5.5-0.3c-12.2-0.7-15-5.1-15-10.2
		c0-0.7,0.1-1.6,0.3-2.2c1.3-5.8,7.2-8.4,21.9-8.4h5.5c18.9,0,20.3,6.1,19.8,10.6h-18.9c0-1.2-0.4-2.7-4.7-2.7
		c-3.9,0-4.9,0.5-4.9,1.7c0,1.2,1,1.8,6.1,2l5.4,0.3c12.1,0.6,16.1,3.3,16.1,9.3c0,0.8,0,1.7-0.1,2.3c-0.8,5.9-5.1,10.6-23.3,10.6
		h-5.7C316.6-203.5,315.6-211.3,316.1-215.4z"/>
	<path d="M367.3-215.4h19.3c0,1.4,0.2,3.5,4.8,3.5c4.3,0,5.1-1.3,5.1-2.4c0-1.3-0.7-2.1-6-2.4l-5.5-0.3c-12.2-0.7-15-5.1-15-10.2
		c0-0.7,0.1-1.6,0.3-2.2c1.3-5.8,7.2-8.4,21.9-8.4h5.5c18.9,0,20.3,6.1,19.8,10.6h-18.9c0-1.2-0.4-2.7-4.7-2.7
		c-3.9,0-4.9,0.5-4.9,1.7c0,1.2,1,1.8,6.1,2l5.4,0.3c12.1,0.6,16.1,3.3,16.1,9.3c0,0.8,0,1.7-0.1,2.3c-0.8,5.9-5.1,10.6-23.3,10.6
		h-5.7C367.8-203.5,366.8-211.3,367.3-215.4z"/>
</g>
<path class="st0" d="M615.7-235h-53.1c-6.4,0-11.6,5.1-11.6,11.5v52.9c0,6.4,5.2,11.5,11.6,11.5h53.1c6.4,0,11.6-5.1,11.6-11.5
	v-52.9C627.3-229.8,622.1-235,615.7-235z"/>
<path class="st1" d="M457,75.1c5.9-5.4,10.7-10,14.5-13.9c3.8-3.9,6.8-7.3,9-10.2c2.2-2.9,3.8-5.5,4.7-7.8c0.9-2.3,1.3-4.5,1.3-6.8
	c0-3.8-1.2-7-3.7-9.5c-2.4-2.5-5.6-3.7-9.4-3.7c-3,0-5.8,0.9-8.3,2.7c-2.5,1.8-4.6,4.4-6.2,7.7h-4.3c-1.5-3.3-3.5-5.8-6.1-7.7
	c-2.5-1.9-5.3-2.8-8.3-2.8c-3.8,0-6.9,1.2-9.4,3.7c-2.4,2.5-3.7,5.6-3.7,9.5c0,2.2,0.4,4.5,1.3,6.8c0.9,2.3,2.5,4.9,4.7,7.8
	c2.2,2.9,5.3,6.3,9.1,10.2C446.4,65.1,451.2,69.7,457,75.1L457,75.1z M457,82l-3.6-3.2c-6.1-5.7-11.2-10.5-15.2-14.6
	s-7.2-7.8-9.6-11c-2.4-3.2-4.1-6.2-5-8.8c-1-2.6-1.4-5.3-1.4-7.9c0-5.2,1.8-9.6,5.3-13.1c3.5-3.5,7.8-5.3,13-5.3
	c3.3,0,6.4,0.8,9.2,2.4c2.8,1.6,5.3,3.8,7.4,6.8c2.4-3.1,5-5.4,7.8-6.9c2.7-1.5,5.7-2.2,8.8-2.2c5.2,0,9.5,1.8,13,5.3
	c3.5,3.5,5.3,7.9,5.3,13.1c0,2.7-0.5,5.3-1.4,7.9c-1,2.6-2.6,5.5-5,8.8c-2.4,3.2-5.6,6.9-9.6,11c-4,4.1-9.1,9-15.2,14.6L457,82
	L457,82z"/>
<path class="st1" d="M269.3,58.2c4.8,0,8.9-1.7,12.3-5.1c3.4-3.4,5-7.5,5-12.3c0-4.8-1.7-8.9-5-12.3c-3.4-3.4-7.5-5.1-12.3-5.1
	c-4.8,0-9,1.7-12.4,5.1c-3.4,3.4-5.1,7.5-5.1,12.3c0,4.8,1.7,8.9,5.1,12.3C260.3,56.5,264.4,58.2,269.3,58.2z M306.5,82l-23.4-23.3
	c-1.8,1.5-3.8,2.7-6.2,3.6c-2.4,0.9-4.9,1.3-7.6,1.3c-6.4,0-11.8-2.2-16.3-6.7c-4.4-4.4-6.7-9.8-6.7-16.1c0-6.3,2.2-11.6,6.7-16.1
	c4.4-4.4,9.8-6.7,16.1-6.7c6.3,0,11.7,2.2,16.1,6.7c4.4,4.4,6.6,9.8,6.6,16.1c0,2.5-0.4,5-1.2,7.4c-0.8,2.4-2.1,4.6-3.7,6.7
	l23.4,23.3L306.5,82L306.5,82z"/>
<path d="M355.6-83.8v-42.6l28.6-21.3l28.6,21.3v42.6h-24.1V-106h-8.9v22.2H355.6L355.6-83.8z M360.9-89.2h13.4v-22.2H394v22.2h13.4
	v-34.6l-23.2-17.3l-23.2,17.3L360.9-89.2L360.9-89.2z"/>
<path class="st1" d="M335.4,82V39.3L364,18l28.6,21.3V82h-24.1V59.8h-8.9V82H335.4L335.4,82z M340.8,76.6h13.4V54.4h19.6v22.2h13.4
	V42L364,24.7L340.8,42L340.8,76.6L340.8,76.6z"/>
<polygon class="st1" points="222.7,82 190.8,50 222.7,18 227.2,22.6 199.8,50 227.2,77.4 "/>
<g id="UNbzRL.tif_00000048460307627378084110000011093611230882854582_">
	<g>
		<path class="st1" d="M22.3,53.5c0.2-1.1,0.3-2.3,0.5-3.4c1.7-8.6,6.5-15,14.2-19.3c4.4-2.4,9.2-3.5,14.3-3.2
			c11.8,0.5,22.1,8.6,25.3,20c0.5,1.7,0.7,3.5,1,5.3c0,0.2,0.1,0.3,0.1,0.5c0,1.2,0,2.4,0,3.6c0,0.2-0.1,0.3-0.1,0.5
			c-0.3,1.7-0.4,3.5-0.9,5.1C73.3,73.4,66.1,80,55.1,82.5c-1.1,0.2-2.2,0.3-3.3,0.5c-1.2,0-2.4,0-3.6,0c-0.1,0-0.3-0.1-0.4-0.1
			c-3.8-0.3-7.4-1.3-10.7-3.1c-7.7-4.2-12.5-10.7-14.2-19.3c-0.2-1.1-0.3-2.2-0.5-3.4C22.3,55.9,22.3,54.7,22.3,53.5z M74.2,55.3
			C74.2,42,63.4,31.2,50,31.1C36.8,31,26,41.8,25.8,55.2C25.7,68.5,36.6,79.4,50,79.4C63.3,79.4,74.1,68.7,74.2,55.3z"/>
		<path class="st1" d="M57.2,17.1c1.1,0.5,1.5,1.3,1.4,2.5c0,0.2,0,0.5,0,0.7c0,1.4-0.7,2.1-2.1,2.2c-0.1,0-0.3,0-0.5,0
			c0,0.4,0,0.8,0,1.1c0,1.3-0.5,1.7-1.7,1.6c-1.5-0.1-3.1-0.3-4.6-0.3c-1.4,0-2.8,0.2-4.2,0.3c-1,0.1-1.5-0.3-1.5-1.3
			c0-0.5,0-0.9,0-1.4c-0.1,0-0.1-0.1-0.2-0.1c-1.8-0.1-2.4-0.7-2.4-2.6c0-0.3,0-0.6,0-1c0-1,0.6-1.5,1.4-1.9
			C47.6,17.1,52.4,17.1,57.2,17.1z"/>
		<path class="st1" d="M74.5,30.8c-0.2,0.3-0.2,0.5-0.4,0.7c-0.3,0.5-0.7,1-1,1.4c-0.7,1-1.4,1.1-2.3,0.3c-1.8-1.6-3.7-3-5.7-4.2
			c-0.5-0.3-1.1-0.6-1.6-0.9c-0.8-0.4-1-1-0.5-1.7c0.4-0.7,0.9-1.4,1.5-2.1c0.3-0.4,0.7-0.3,1.1-0.1c0.7,0.5,1.4,1,2.1,1.4
			c2.1,1.4,4.1,2.9,6.2,4.4C74.1,30.3,74.3,30.6,74.5,30.8z"/>
		<path class="st1" d="M50,45.2c0-2.6,0-5.2,0-7.8c0-1.5,0.6-2,2.1-1.8c4,0.5,7.7,1.9,10.9,4.6c3.6,3,5.5,7,6.4,11.6
			c0.1,0.5,0.2,1.1,0.3,1.6c0.1,1.3-0.5,2-1.8,2c-5.3,0-10.5,0-15.8,0c-1.4,0-2.1-0.7-2.1-2.1C50,50.5,50,47.8,50,45.2z"/>
	</g>
</g>
</svg>
