<?xml version="1.0" encoding="utf-8"?>
<!-- Generator: Adobe Illustrator 27.2.0, SVG Export Plug-In . SVG Version: 6.00 Build 0)  -->
<svg version="1.1" id="Capa_1" xmlns="http://www.w3.org/2000/svg" xmlns:xlink="http://www.w3.org/1999/xlink" x="0px" y="0px"
	 viewBox="0 0 960 600" style="enable-background:new 0 0 960 600;" xml:space="preserve">
<style type="text/css">
	.st0{fill:#333333;}
	.st1{fill:#BDEB00;}
	.st2{fill:#FFFFFF;}
</style>
<path class="st0" d="M463.7,170.3c6.3,3.7,10.1,10.5,10.1,17.8v63c0,11.7-8.2,21.6-19.1,24.1c-6.3,1.5-12.7,3-18.8,5.1l-67.2,22.6
	c-13,0-25.2-6.1-33-16.4c-8.3-11-22.6-24.1-45.1-27.5c-4.7-0.7-7-6.1-4.2-10c7.6-10.4,19.2-27.8,22.7-42.6
	c5.5-22.8,48.6-62,78.5-64.3C409.6,140.2,446.1,159.8,463.7,170.3z"/>
<path class="st0" d="M500.3,170.3c-6.3,3.7-10.1,10.5-10.1,17.8v63c0,11.7,8.2,21.6,19.1,24.1c6.3,1.5,12.7,3,18.8,5.1l67.2,22.6
	c13,0,25.2-6.1,33-16.4c8.3-11,22.6-24.1,45.1-27.5c4.7-0.7,7-6.1,4.2-10c-7.6-10.4-19.2-27.8-22.7-42.6
	c-5.5-22.8-48.6-62-78.5-64.3C554.4,140.2,517.9,159.8,500.3,170.3z"/>
<g>
	<path class="st0" d="M434.8,40.6l16.9,22c3.2,4.2,5.7,9,7.4,14l20.9,64.2c0.2,0.7,0.4,1.5,0.4,2.3l0,0c0,7.2-9.2,10.1-13.3,4.2
		C450.4,123.7,424.5,80,429.5,42C429.8,39.4,433.2,38.5,434.8,40.6z"/>
</g>
<g>
	<path class="st0" d="M334.7,106.9l68.6-33.8c7.3-3.6,16,0.5,17.9,8.4c2.5,10.3,7,24.6,14.4,38.9c3.8,7.3-2.4,15.8-10.5,14.4
		l-88.7-16.1C330.4,117.6,329.3,109.6,334.7,106.9z"/>
</g>
<g>
	<path class="st0" d="M366.4,140.4c0,0-50.2-25.1-85.5-9.4c-35.3,15.7-76.9,42.4-55.7,164c0,0,55.7-41.6,63.6-72.2
		C296.6,192.2,330.3,142.7,366.4,140.4z"/>
</g>
<g>
	<path class="st0" d="M285.1,287.5v38.9c0,0-17.7,95.1-65.2,131.2c-6.9,5.2-16.9,0.9-17.9-7.7l-5.5-47.4c-1.3-10.8,0.2-21.8,4.2-32
		l26.8-67.7c0,0,29.8-19.6,42.4-30.6l0,0C278.3,272.2,285.1,279,285.1,287.5z"/>
</g>
<g>
	<path class="st0" d="M202.1,332.9c2.2-1.7,5.2,0.8,3.8,3.3c-6.3,11.3-15.8,30.9-17.3,48.3c-1.5,17.2-1,41.6-0.5,56.4
		c0.1,3.2-4.1,4.3-5.6,1.5l-7.3-14c-3.1-5.9-4.6-12.6-4.3-19.3C171.6,390.6,176.4,353.2,202.1,332.9z"/>
</g>
<g>
	<path class="st0" d="M288.1,361.1v11.8c0,5.1-0.9,10.2-2.7,14.9c-3.8,10.2-12,28-25.3,39.9c-1.4,1.3-3.5-0.4-2.7-2.1
		c6.3-12.8,19.7-41.5,27.1-65.2C285.1,358.5,288.1,359,288.1,361.1z"/>
</g>
<g>
	<path class="st1" d="M473.9,373.4v52.1c0,3.9-3.2,7.1-7.1,7.1h-46.7c-4.6,0-8.8-2.4-11.1-6.4l-5.4-9.4c-5.1-8.8-3-20,4.9-26.3
		c12.2-9.8,32.2-22.1,57.7-24.1C470.3,366,473.9,369.2,473.9,373.4z"/>
</g>
<g>
	<g>
		<path class="st1" d="M465.3,536.1h-33.2c-8.4,0-15.2-6.8-15.2-15.2v-60.5c0-8.4,6.8-15.2,15.2-15.2h33.2c4.8,0,8.6,3.9,8.6,8.6
			v73.8C473.9,532.3,470,536.1,465.3,536.1z"/>
	</g>
</g>
<g>
	<path class="st1" d="M349.3,404.9l21.5,24.4c9,10.3,14,23.5,14,37.2v29.7c0,2.3-2.7,3.6-4.5,2.1l-18.7-16.1
		c-10.8-9.3-17-22.9-17-37.1v-38.3C344.5,404.1,347.6,403,349.3,404.9z"/>
</g>
<g>
	<path class="st1" d="M352.8,489.1l21.3,19.7c6.8,6.3,10.7,15.3,10.7,24.6v22.3c0,4.5-5.5,6.6-8.5,3.4l-21.9-23.2
		c-6.3-6.7-9.9-15.6-9.9-24.9v-18.2C344.5,488.4,349.6,486.1,352.8,489.1z"/>
</g>
<g>
	<g>
		<path class="st0" d="M529.2,40.6l-16.9,22c-3.2,4.2-5.7,9-7.4,14L484,140.8c-0.2,0.7-0.4,1.5-0.4,2.3l0,0c0,7.2,9.2,10.1,13.3,4.2
			C513.6,123.7,539.5,80,534.5,42C534.2,39.4,530.8,38.5,529.2,40.6z"/>
	</g>
</g>
<g>
	<g>
		<path class="st0" d="M629.3,106.9l-68.6-33.8c-7.3-3.6-16,0.5-17.9,8.4c-2.5,10.3-7,24.6-14.4,38.9c-3.8,7.3,2.4,15.8,10.5,14.4
			l88.7-16.1C633.6,117.6,634.7,109.6,629.3,106.9z"/>
	</g>
</g>
<g>
	<g>
		<path class="st0" d="M597.6,140.4c0,0,50.2-25.1,85.5-9.4c35.3,15.7,76.9,42.4,55.7,164c0,0-55.7-41.6-63.6-72.2
			C667.4,192.2,633.7,142.7,597.6,140.4z"/>
	</g>
</g>
<g>
	<g>
		<path class="st0" d="M678.9,287.5v38.9c0,0,17.7,95.1,65.2,131.2c6.9,5.2,16.9,0.9,17.9-7.7l5.5-47.4c1.3-10.8-0.2-21.8-4.2-32
			l-26.8-67.7c0,0-29.8-19.6-42.4-30.6h0C685.7,272.2,678.9,279,678.9,287.5z"/>
	</g>
</g>
<g>
	<g>
		<path class="st0" d="M761.9,332.9c-2.2-1.7-5.2,0.8-3.8,3.3c6.3,11.3,15.8,30.9,17.3,48.3c1.5,17.2,1,41.6,0.5,56.4
			c-0.1,3.2,4.1,4.3,5.6,1.5l7.3-14c3.1-5.9,4.6-12.6,4.3-19.3C792.4,390.6,787.6,353.2,761.9,332.9z"/>
	</g>
</g>
<g>
	<g>
		<path class="st0" d="M675.9,361.1v11.8c0,5.1,0.9,10.2,2.7,14.9c3.8,10.2,12,28,25.3,39.9c1.4,1.3,3.5-0.4,2.7-2.1
			c-6.3-12.8-19.7-41.5-27.1-65.2C678.9,358.5,675.9,359,675.9,361.1z"/>
	</g>
</g>
<g>
	<g>
		<path class="st1" d="M490.1,373.4v52.1c0,3.9,3.2,7.1,7.1,7.1h46.7c4.6,0,8.8-2.4,11.1-6.4l5.4-9.4c5.1-8.8,3-20-4.9-26.3
			c-12.2-9.8-32.2-22.1-57.7-24.1C493.7,366,490.1,369.2,490.1,373.4z"/>
	</g>
</g>
<g>
	<g>
		<path class="st1" d="M498.7,536.1h33.2c8.4,0,15.2-6.8,15.2-15.2v-60.5c0-8.4-6.8-15.2-15.2-15.2h-33.2c-4.8,0-8.6,3.9-8.6,8.6
			v73.8C490.1,532.3,494,536.1,498.7,536.1z"/>
	</g>
</g>
<g>
	<g>
		<path class="st1" d="M614.7,404.9l-21.5,24.4c-9,10.3-14,23.5-14,37.2v29.7c0,2.3,2.7,3.6,4.5,2.1l18.7-16.1
			c10.8-9.3,17-22.9,17-37.1v-38.3C619.5,404.1,616.4,403,614.7,404.9z"/>
	</g>
</g>
<g>
	<g>
		<path class="st1" d="M611.2,489.1L590,508.8c-6.8,6.3-10.7,15.3-10.7,24.6v22.3c0,4.5,5.5,6.6,8.5,3.4l21.9-23.2
			c6.3-6.7,9.9-15.6,9.9-24.9v-18.2C619.5,488.4,614.4,486.1,611.2,489.1z"/>
	</g>
</g>
<g>
	<path class="st1" d="M473.5,296.4v48.7c0,3.7-2.7,6.9-6.6,7.8l-28.2,6.5c-14.5,3.4-37.7,14.3-37.7,14.3
		c-8.1,8.3-48.7-58.4-16.8-58.4l80.6-27C469.7,288.3,473.5,291.9,473.5,296.4z"/>
</g>
<g>
	<g>
		<path class="st1" d="M489.8,296.4v48.7c0,3.7,2.7,6.9,6.6,7.8l28.2,6.5c14.5,3.4,37.7,14.3,37.7,14.3c8.1,8.3,50.2-58.4,16.8-58.4
			l-80.6-27C493.7,288.3,489.8,291.9,489.8,296.4z"/>
	</g>
</g>
<g>
	<path class="st0" d="M2648.1,396.3c4.1,2.4,6.6,6.8,6.6,11.6V449c0,7.7-5.3,14.1-12.5,15.8c-4.1,1-8.3,2-12.3,3.3l-43.9,14.7
		c-8.5,0-16.4-4-21.5-10.7c-5.4-7.2-14.8-15.7-29.5-17.9c-3.1-0.5-4.6-4-2.8-6.5c5-6.8,12.5-18.2,14.8-27.8
		c3.6-14.9,31.8-40.5,51.2-42C2612.7,376.7,2636.5,389.5,2648.1,396.3z"/>
	<path class="st0" d="M2671.9,396.3c-4.1,2.4-6.6,6.8-6.6,11.6V449c0,7.7,5.3,14.1,12.5,15.8c4.1,1,8.3,2,12.3,3.3l43.9,14.7
		c8.5,0,16.4-4,21.5-10.7c5.4-7.2,14.8-15.7,29.5-17.9c3.1-0.5,4.6-4,2.8-6.5c-5-6.8-12.5-18.2-14.8-27.8
		c-3.6-14.9-31.8-40.5-51.2-42C2707.3,376.7,2683.4,389.5,2671.9,396.3z"/>
	<g>
		<g>
			<path class="st0" d="M2629.2,311.6l11,14.4c2.1,2.8,3.7,5.8,4.8,9.1l13.7,41.9c0.2,0.5,0.2,1,0.2,1.5l0,0c0,4.7-6,6.6-8.7,2.8
				c-10.9-15.4-27.8-43.9-24.6-68.8C2625.9,310.8,2628.1,310.3,2629.2,311.6z"/>
		</g>
		<g>
			<path class="st1" d="M2563.8,354.9l44.8-22c4.7-2.3,10.4,0.3,11.7,5.5c1.6,6.8,4.5,16,9.4,25.4c2.5,4.8-1.6,10.3-6.9,9.4
				l-57.9-10.5C2561,361.9,2560.3,356.7,2563.8,354.9z"/>
		</g>
		<g>
			<g>
				<path class="st1" d="M2584.5,376.8c0,0-32.8-16.4-55.8-6.1s-50.2,27.7-36.4,107.1c0,0,36.4-27.2,41.5-47.1
					C2538.9,410.6,2560.9,378.3,2584.5,376.8z"/>
			</g>
		</g>
		<g>
			<g>
				<path class="st1" d="M2531.5,472.8v25.4c0,0-11.5,62.1-42.6,85.7c-4.5,3.4-11.1,0.6-11.7-5l-3.6-30.9
					c-0.8-7.1,0.1-14.3,2.7-20.9l17.5-44.2c0,0,19.5-12.8,27.7-20l0,0C2527,462.8,2531.5,467.3,2531.5,472.8z"/>
			</g>
		</g>
		<g>
			<path class="st0" d="M2477.2,502.5c1.4-1.1,3.4,0.5,2.5,2.1c-4.1,7.4-10.3,20.2-11.3,31.6c-1,11.2-0.7,27.1-0.4,36.9
				c0.1,2.1-2.7,2.8-3.7,1l-4.8-9.1c-2-3.9-3-8.2-2.8-12.6C2457.3,540.2,2460.5,515.7,2477.2,502.5z"/>
		</g>
		<g>
			<path class="st0" d="M2533.4,520.9v7.7c0,3.3-0.6,6.6-1.8,9.8c-2.5,6.7-7.8,18.3-16.5,26.1c-0.9,0.8-2.3-0.2-1.8-1.3
				c4.1-8.4,12.9-27.1,17.7-42.6C2531.4,519.2,2533.4,519.5,2533.4,520.9z"/>
		</g>
		<g>
			<path class="st0" d="M2654.7,528.9v34c0,2.6-2.1,4.6-4.6,4.6h-30.5c-3,0-5.8-1.6-7.3-4.2l-3.5-6.1c-3.3-5.7-2-13,3.2-17.2
				c7.9-6.4,21-14.4,37.7-15.8C2652.3,524.1,2654.7,526.2,2654.7,528.9z"/>
		</g>
		<g>
			<g>
				<path class="st0" d="M2649.1,635.2h-21.7c-5.5,0-9.9-4.5-9.9-9.9v-39.5c0-5.5,4.5-9.9,9.9-9.9h21.7c3.1,0,5.6,2.5,5.6,5.6v48.2
					C2654.7,632.7,2652.2,635.2,2649.1,635.2z"/>
			</g>
		</g>
		<g>
			<path class="st0" d="M2573.3,549.5l14,15.9c5.9,6.7,9.2,15.3,9.2,24.3v19.4c0,1.5-1.8,2.3-2.9,1.4l-12.2-10.5
				c-7.1-6.1-11.1-14.9-11.1-24.2v-25C2570.2,549,2572.2,548.2,2573.3,549.5z"/>
		</g>
		<g>
			<path class="st0" d="M2575.6,604.5l13.9,12.9c4.5,4.1,7,10,7,16.1v14.5c0,2.9-3.6,4.3-5.6,2.2l-14.3-15.2
				c-4.1-4.4-6.4-10.2-6.4-16.3v-11.9C2570.2,604,2573.5,602.5,2575.6,604.5z"/>
		</g>
		<g>
			<g>
				<path class="st0" d="M2690.8,311.6l-11,14.4c-2.1,2.8-3.7,5.8-4.8,9.1l-13.7,41.9c-0.2,0.5-0.2,1-0.2,1.5l0,0
					c0,4.7,6,6.6,8.7,2.8c10.9-15.4,27.8-43.9,24.6-68.8C2694,310.8,2691.8,310.3,2690.8,311.6z"/>
			</g>
		</g>
		<g>
			<g>
				<path class="st1" d="M2756.1,354.9l-44.8-22c-4.7-2.3-10.4,0.3-11.7,5.5c-1.6,6.8-4.5,16-9.4,25.4c-2.5,4.8,1.6,10.3,6.9,9.4
					l57.9-10.5C2758.9,361.9,2759.7,356.7,2756.1,354.9z"/>
			</g>
		</g>
		<g>
			<g>
				<g>
					<path class="st1" d="M2735.5,376.8c0,0,32.8-16.4,55.8-6.1s50.2,27.7,36.4,107.1c0,0-36.4-27.2-41.5-47.1
						C2781.1,410.6,2759,378.3,2735.5,376.8z"/>
				</g>
			</g>
		</g>
		<g>
			<g>
				<g>
					<path class="st1" d="M2788.5,472.8v25.4c0,0,11.5,62.1,42.6,85.7c4.5,3.4,11.1,0.6,11.7-5l3.6-30.9c0.8-7.1-0.1-14.3-2.7-20.9
						l-17.5-44.2c0,0-19.5-12.8-27.7-20l0,0C2793,462.8,2788.5,467.3,2788.5,472.8z"/>
				</g>
			</g>
		</g>
		<g>
			<g>
				<path class="st0" d="M2842.7,502.5c-1.4-1.1-3.4,0.5-2.5,2.1c4.1,7.4,10.3,20.2,11.3,31.6c1,11.2,0.7,27.1,0.4,36.9
					c-0.1,2.1,2.7,2.8,3.7,1l4.8-9.1c2-3.9,3-8.2,2.8-12.6C2862.7,540.2,2859.5,515.7,2842.7,502.5z"/>
			</g>
		</g>
		<g>
			<g>
				<path class="st0" d="M2786.6,520.9v7.7c0,3.3,0.6,6.6,1.8,9.8c2.5,6.7,7.8,18.3,16.5,26.1c0.9,0.8,2.3-0.2,1.8-1.3
					c-4.1-8.4-12.9-27.1-17.7-42.6C2788.5,519.2,2786.6,519.5,2786.6,520.9z"/>
			</g>
		</g>
		<g>
			<g>
				<path class="st0" d="M2665.3,528.9v34c0,2.6,2.1,4.6,4.6,4.6h30.5c3,0,5.8-1.6,7.3-4.2l3.5-6.1c3.3-5.7,2-13-3.2-17.2
					c-7.9-6.4-21-14.4-37.7-15.8C2667.6,524.1,2665.3,526.2,2665.3,528.9z"/>
			</g>
		</g>
		<g>
			<g>
				<path class="st0" d="M2670.9,635.2h21.7c5.5,0,9.9-4.5,9.9-9.9v-39.5c0-5.5-4.5-9.9-9.9-9.9h-21.7c-3.1,0-5.6,2.5-5.6,5.6v48.2
					C2665.3,632.7,2667.8,635.2,2670.9,635.2z"/>
			</g>
		</g>
		<g>
			<g>
				<path class="st0" d="M2746.6,549.5l-14,15.9c-5.9,6.7-9.2,15.3-9.2,24.3v19.4c0,1.5,1.8,2.3,2.9,1.4l12.2-10.5
					c7.1-6.1,11.1-14.9,11.1-24.2v-25C2749.8,549,2747.7,548.2,2746.6,549.5z"/>
			</g>
		</g>
		<g>
			<g>
				<path class="st0" d="M2744.4,604.5l-13.9,12.9c-4.5,4.1-7,10-7,16.1v14.5c0,2.9,3.6,4.3,5.6,2.2l14.3-15.2
					c4.1-4.4,6.4-10.2,6.4-16.3v-11.9C2749.8,604,2746.4,602.5,2744.4,604.5z"/>
			</g>
		</g>
		<g>
			<path class="st0" d="M2654.5,478.6v31.8c0,2.4-1.8,4.5-4.3,5.1l-18.4,4.3c-9.5,2.2-24.6,9.3-24.6,9.3c-5.3,5.4-31.8-38.1-11-38.1
				l52.6-17.6C2651.9,473.4,2654.5,475.7,2654.5,478.6z"/>
		</g>
		<g>
			<g>
				<path class="st0" d="M2665.1,478.6v31.8c0,2.4,1.8,4.5,4.3,5.1l18.4,4.3c9.5,2.2,24.6,9.3,24.6,9.3c5.3,5.4,32.8-38.1,11-38.1
					l-52.6-17.6C2667.6,473.4,2665.1,475.7,2665.1,478.6z"/>
			</g>
		</g>
	</g>
</g>
<g>
	<path class="st0" d="M1945.1-394.8c4.1,2.4,6.6,6.8,6.6,11.6v41.1c0,7.7-5.3,14.1-12.5,15.8c-4.1,1-8.3,2-12.3,3.3l-43.9,14.7
		c-8.5,0-16.4-4-21.5-10.7c-5.4-7.2-14.8-15.7-29.5-17.9c-3.1-0.5-4.6-4-2.8-6.5c5-6.8,12.5-18.2,14.8-27.8
		c3.6-14.9,31.8-40.5,51.2-42C1909.7-414.5,1933.5-401.6,1945.1-394.8z"/>
	<path class="st0" d="M1968.9-394.8c-4.1,2.4-6.6,6.8-6.6,11.6v41.1c0,7.7,5.3,14.1,12.5,15.8c4.1,1,8.3,2,12.3,3.3l43.9,14.7
		c8.5,0,16.4-4,21.5-10.7c5.4-7.2,14.8-15.7,29.5-17.9c3.1-0.5,4.6-4,2.8-6.5c-5-6.8-12.5-18.2-14.8-27.8
		c-3.6-14.9-31.8-40.5-51.2-42C2004.3-414.5,1980.4-401.6,1968.9-394.8z"/>
	<g>
		<g>
			<path class="st0" d="M1926.2-479.5l11,14.4c2.1,2.8,3.7,5.8,4.8,9.1l13.7,41.9c0.2,0.5,0.2,1,0.2,1.5l0,0c0,4.7-6,6.6-8.7,2.8
				c-10.9-15.4-27.8-43.9-24.6-68.8C1922.9-480.3,1925.1-480.9,1926.2-479.5z"/>
		</g>
		<g>
			<path class="st0" d="M1860.8-436.2l44.8-22c4.7-2.3,10.4,0.3,11.7,5.5c1.6,6.8,4.5,16,9.4,25.4c2.5,4.8-1.6,10.3-6.9,9.4
				l-57.9-10.5C1858-429.2,1857.3-434.5,1860.8-436.2z"/>
		</g>
		<g>
			<g>
				<path class="st0" d="M1881.5-414.3c0,0-32.8-16.4-55.8-6.1c-23.1,10.2-50.2,27.7-36.4,107.1c0,0,36.4-27.2,41.5-47.1
					C1835.9-380.5,1857.9-412.8,1881.5-414.3z"/>
			</g>
		</g>
		<g>
			<g>
				<path class="st0" d="M1828.5-318.3v25.4c0,0-11.5,62.1-42.6,85.7c-4.5,3.4-11.1,0.6-11.7-5l-3.6-30.9
					c-0.8-7.1,0.1-14.3,2.7-20.9l17.5-44.2c0,0,19.5-12.8,27.7-20l0,0C1824-328.3,1828.5-323.8,1828.5-318.3z"/>
			</g>
		</g>
		<g>
			<path class="st0" d="M1774.2-288.7c1.4-1.1,3.4,0.5,2.5,2.1c-4.1,7.4-10.3,20.2-11.3,31.6c-1,11.2-0.7,27.1-0.4,36.9
				c0.1,2.1-2.7,2.8-3.7,1l-4.8-9.1c-2-3.9-3-8.2-2.8-12.6C1754.3-251,1757.5-275.4,1774.2-288.7z"/>
		</g>
		<g>
			<path class="st0" d="M1830.4-270.2v7.7c0,3.3-0.6,6.6-1.8,9.8c-2.5,6.7-7.8,18.3-16.5,26.1c-0.9,0.8-2.3-0.2-1.8-1.3
				c4.1-8.4,12.9-27.1,17.7-42.6C1828.4-271.9,1830.4-271.6,1830.4-270.2z"/>
		</g>
		<g>
			<path class="st2" d="M1951.7-262.2v34c0,2.6-2.1,4.6-4.6,4.6h-30.5c-3,0-5.8-1.6-7.3-4.2l-3.5-6.1c-3.3-5.7-2-13,3.2-17.2
				c7.9-6.4,21-14.4,37.7-15.8C1949.3-267.1,1951.7-264.9,1951.7-262.2z"/>
		</g>
		<g>
			<g>
				<path class="st2" d="M1946.1-156h-21.7c-5.5,0-9.9-4.5-9.9-9.9v-39.5c0-5.5,4.5-9.9,9.9-9.9h21.7c3.1,0,5.6,2.5,5.6,5.6v48.2
					C1951.7-158.5,1949.2-156,1946.1-156z"/>
			</g>
		</g>
		<g>
			<path class="st2" d="M1870.3-241.7l14,15.9c5.9,6.7,9.2,15.3,9.2,24.3v19.4c0,1.5-1.8,2.3-2.9,1.4l-12.2-10.5
				c-7.1-6.1-11.1-14.9-11.1-24.2v-25C1867.2-242.1,1869.2-242.9,1870.3-241.7z"/>
		</g>
		<g>
			<path class="st2" d="M1872.6-186.7l13.9,12.9c4.5,4.1,7,10,7,16.1v14.5c0,2.9-3.6,4.3-5.6,2.2l-14.3-15.2
				c-4.1-4.4-6.4-10.2-6.4-16.3v-11.9C1867.2-187.1,1870.5-188.6,1872.6-186.7z"/>
		</g>
		<g>
			<g>
				<path class="st0" d="M1987.8-479.5l-11,14.4c-2.1,2.8-3.7,5.8-4.8,9.1l-13.7,41.9c-0.2,0.5-0.2,1-0.2,1.5l0,0
					c0,4.7,6,6.6,8.7,2.8c10.9-15.4,27.8-43.9,24.6-68.8C1991-480.3,1988.8-480.9,1987.8-479.5z"/>
			</g>
		</g>
		<g>
			<g>
				<path class="st0" d="M2053.1-436.2l-44.8-22c-4.7-2.3-10.4,0.3-11.7,5.5c-1.6,6.8-4.5,16-9.4,25.4c-2.5,4.8,1.6,10.3,6.9,9.4
					l57.9-10.5C2055.9-429.2,2056.7-434.5,2053.1-436.2z"/>
			</g>
		</g>
		<g>
			<g>
				<g>
					<path class="st0" d="M2032.5-414.3c0,0,32.8-16.4,55.8-6.1s50.2,27.7,36.4,107.1c0,0-36.4-27.2-41.5-47.1
						C2078.1-380.5,2056-412.8,2032.5-414.3z"/>
				</g>
			</g>
		</g>
		<g>
			<g>
				<g>
					<path class="st0" d="M2085.5-318.3v25.4c0,0,11.5,62.1,42.6,85.7c4.5,3.4,11.1,0.6,11.7-5l3.6-30.9c0.8-7.1-0.1-14.3-2.7-20.9
						l-17.5-44.2c0,0-19.5-12.8-27.7-20l0,0C2090-328.3,2085.5-323.8,2085.5-318.3z"/>
				</g>
			</g>
		</g>
		<g>
			<g>
				<path class="st0" d="M2139.7-288.7c-1.4-1.1-3.4,0.5-2.5,2.1c4.1,7.4,10.3,20.2,11.3,31.6c1,11.2,0.7,27.1,0.4,36.9
					c-0.1,2.1,2.7,2.8,3.7,1l4.8-9.1c2-3.9,3-8.2,2.8-12.6C2159.7-251,2156.5-275.4,2139.7-288.7z"/>
			</g>
		</g>
		<g>
			<g>
				<path class="st0" d="M2083.6-270.2v7.7c0,3.3,0.6,6.6,1.8,9.8c2.5,6.7,7.8,18.3,16.5,26.1c0.9,0.8,2.3-0.2,1.8-1.3
					c-4.1-8.4-12.9-27.1-17.7-42.6C2085.5-271.9,2083.6-271.6,2083.6-270.2z"/>
			</g>
		</g>
		<g>
			<g>
				<path class="st2" d="M1962.3-262.2v34c0,2.6,2.1,4.6,4.6,4.6h30.5c3,0,5.8-1.6,7.3-4.2l3.5-6.1c3.3-5.7,2-13-3.2-17.2
					c-7.9-6.4-21-14.4-37.7-15.8C1964.6-267.1,1962.3-264.9,1962.3-262.2z"/>
			</g>
		</g>
		<g>
			<g>
				<path class="st2" d="M1967.9-156h21.7c5.5,0,9.9-4.5,9.9-9.9v-39.5c0-5.5-4.5-9.9-9.9-9.9h-21.7c-3.1,0-5.6,2.5-5.6,5.6v48.2
					C1962.3-158.5,1964.8-156,1967.9-156z"/>
			</g>
		</g>
		<g>
			<g>
				<path class="st2" d="M2043.6-241.7l-14,15.9c-5.9,6.7-9.2,15.3-9.2,24.3v19.4c0,1.5,1.8,2.3,2.9,1.4l12.2-10.5
					c7.1-6.1,11.1-14.9,11.1-24.2v-25C2046.8-242.1,2044.7-242.9,2043.6-241.7z"/>
			</g>
		</g>
		<g>
			<g>
				<path class="st2" d="M2041.4-186.7l-13.9,12.9c-4.5,4.1-7,10-7,16.1v14.5c0,2.9,3.6,4.3,5.6,2.2l14.3-15.2
					c4.1-4.4,6.4-10.2,6.4-16.3v-11.9C2046.8-187.1,2043.4-188.6,2041.4-186.7z"/>
			</g>
		</g>
		<g>
			<path class="st2" d="M1951.5-312.5v31.8c0,2.4-1.8,4.5-4.3,5.1l-18.4,4.3c-9.5,2.2-24.6,9.3-24.6,9.3c-5.3,5.4-31.8-38.1-11-38.1
				l52.6-17.6C1948.9-317.7,1951.5-315.4,1951.5-312.5z"/>
		</g>
		<g>
			<g>
				<path class="st2" d="M1962.1-312.5v31.8c0,2.4,1.8,4.5,4.3,5.1l18.4,4.3c9.5,2.2,24.6,9.3,24.6,9.3c5.3,5.4,32.8-38.1,11-38.1
					l-52.6-17.6C1964.6-317.7,1962.1-315.4,1962.1-312.5z"/>
			</g>
		</g>
	</g>
</g>
</svg>
