<?xml version="1.0" encoding="utf-8"?>
<!-- Generator: Adobe Illustrator 27.2.0, SVG Export Plug-In . SVG Version: 6.00 Build 0)  -->
<svg version="1.1" id="Capa_1" xmlns="http://www.w3.org/2000/svg" xmlns:xlink="http://www.w3.org/1999/xlink" x="0px" y="0px"
	 viewBox="0 0 100 100" style="enable-background:new 0 0 100 100;" xml:space="preserve">
<style type="text/css">
	.st0{fill:#BDEB00;}
</style>
<g id="mO7noH_00000132809711065820494230000008800246660261908637_">
	<g>
		<path class="st0" d="M1087.1-257.8c-1,1.1-2,2.2-3.1,3.3c-1.3,1.3-3,1.4-4.2,0.3c-1.1-1.1-1.1-2.9,0.1-4.2
			c2.7-2.8,5.5-5.5,8.3-8.3c1.3-1.2,2.9-1.3,4.2,0c2.8,2.8,5.6,5.5,8.4,8.4c1.2,1.2,1.2,3,0.1,4.1s-2.8,1.1-4.1-0.1
			c-0.6-0.5-1.2-1.1-1.7-1.7s-1-1.2-1.4-1.8c-0.1,0.1-0.2,0.2-0.4,0.2c0,11.3,0,22.6,0,34.3c1.2-1.1,2.2-2.2,3.2-3.2
			c1.5-1.5,3.2-1.7,4.4-0.5c1.2,1.2,1.1,2.9-0.3,4.4c-2.6,2.6-5.2,5.2-7.8,7.8c-1.5,1.5-3.1,1.5-4.6,0c-2.7-2.6-5.3-5.3-7.9-7.9
			c-1.4-1.4-1.4-3.2-0.3-4.3c1.2-1.2,2.9-1,4.3,0.4c1,1,2,2.1,3.3,3.5c0-11.8,0-23.1,0-34.4C1087.3-257.6,1087.2-257.7,1087.1-257.8
			z"/>
		<path class="st0" d="M1123-259.2c-5.2,0-10.3,0-15.5,0c-1.4,0-2.4-0.6-2.8-1.9c-0.4-1.2-0.1-2.3,1-3.1c0.5-0.3,1.2-0.6,1.8-0.6
			c10.3,0,20.6,0,30.9,0c1.8,0,2.9,1.1,3,2.7c0,1.7-1.1,2.8-3,2.8C1133.3-259.2,1128.1-259.2,1123-259.2z"/>
		<path class="st0" d="M1123.2-236.3c5.1,0,10.2,0,15.3,0c1.6,0,2.6,0.8,2.8,2.2c0.3,1.4-0.4,2.7-1.7,3.2c-0.5,0.2-1,0.2-1.5,0.2
			c-10.2,0-20.3,0-30.5,0c-2,0-3.2-1.1-3.1-2.9c0-1.7,1.2-2.7,3.2-2.7C1112.9-236.3,1118.1-236.3,1123.2-236.3z"/>
		<path class="st0" d="M1117.4-216.5c-3.2,0-6.4,0-9.6,0c-2,0-3.2-1.1-3.2-2.8s1.2-2.8,3.2-2.8c6.4,0,12.7,0,19.1,0
			c2,0,3.2,1.1,3.2,2.8c0,1.6-1.3,2.7-3.2,2.7C1123.8-216.5,1120.6-216.5,1117.4-216.5z"/>
		<path class="st0" d="M1117.3-245c-3.1,0-6.3,0-9.4,0c-2.2,0-3.4-1-3.3-2.8c0-1.7,1.2-2.7,3.3-2.7c6.3,0,12.6,0,19,0
			c2,0,3.3,1.1,3.3,2.7c0,1.7-1.2,2.8-3.2,2.8C1123.7-245,1120.5-245,1117.3-245z"/>
	</g>
</g>
<g id="ibVZ2q_00000010997394880046020040000000144313009832512144_">
	<g>
		<path class="st0" d="M735.5-243.4c0-9.9,0-19.8,0-29.7c0-3.7,2.5-6.9,6.1-7.8c0.6-0.1,1.2-0.2,1.8-0.2c17.7,0,35.4,0,53,0
			c4.5,0,8,3.6,8,8c0,19.8,0,39.6,0,59.3c0,4.5-3.6,8-8,8c-17.7,0-35.3,0-53,0c-4.4,0-8-3.6-8-8
			C735.5-223.7,735.5-233.6,735.5-243.4z M802.1-243.4c0-9.9,0-19.7,0-29.6c0-3.3-2.5-5.7-5.7-5.7c-17.6,0-35.2,0-52.8,0
			c-3.3,0-5.8,2.5-5.8,5.8c0,19.7,0,39.3,0,59c0,3.4,2.4,5.8,5.8,5.8c17.5,0,35.1,0,52.6,0c3.4,0,5.8-2.4,5.8-5.8
			C802.1-223.8,802.1-233.6,802.1-243.4z"/>
		<path class="st0" d="M761.3-256.7c0.2,0,0.4,0,0.5,0c1.8,0,3.5,0,5.3,0c0.8,0,1.3,0.5,1.3,1.2s-0.5,1.2-1.3,1.2c-3.7,0-7.3,0-11,0
			c-2.2,0-3.9-1.7-3.9-3.9c0-3.9,0-7.8,0-11.7c0-0.5,0.1-1,0.2-1.6c-0.1,0-0.3,0-0.5,0c-2.5,0-5,0-7.5,0c-0.8,0-1.4-0.5-1.3-1.2
			c0-0.5,0.4-1,1-1.1c0.2,0,0.4,0,0.6,0c16.9,0,33.8,0,50.7,0c0.1,0,0.2,0,0.3,0c0.7,0,1.2,0.5,1.2,1.2s-0.5,1.2-1.3,1.2
			c-1.4,0-2.8,0-4.3,0c-1.1,0-2.2,0-3.3,0c-0.1,0-0.3,0-0.4,0c0.4,2.2,0.2,4.3,0.2,6.5c0,2.3,0,4.6,0,6.8c0,2.1-1.7,3.8-3.8,3.9
			c-3.8,0-7.7,0-11.5,0c-0.6,0-1.1-0.3-1.2-0.9c-0.1-0.5,0-1.1,0.5-1.3c0.2-0.1,0.6-0.2,0.9-0.2c1.8,0,3.7,0,5.5,0
			c0.2,0,0.4,0,0.6,0c-0.7-2.5-3.8-5.9-8.4-6.1C765.5-263,762.1-259.5,761.3-256.7z M778.6-261.4c1.3,1.4,2.1,2.9,2.7,4.6
			c0,0.1,0.2,0.2,0.4,0.2c0.7,0,1.4,0,2.1,0c1.2,0,1.8-0.6,1.8-1.8c0-3.7,0-7.5,0-11.2c0-1.2-0.6-1.8-1.8-1.8c-4.4,0-8.9,0-13.3,0
			c-4.7,0-9.4,0-14.1,0c-1.1,0-1.7,0.6-1.7,1.6c0,3.9,0,7.7,0,11.6c0,0.9,0.6,1.6,1.6,1.6c0.7,0,1.5,0,2.2,0c0.3,0,0.5-0.1,0.6-0.4
			c0.4-1.4,1.1-2.7,2.1-3.8c0.2-0.2,0.3-0.4,0.5-0.6c-0.5-0.4-0.9-0.8-1.3-1.3c-0.2-0.2-0.3-0.4-0.4-0.7c-0.1-0.5,0.2-1,0.6-1.2
			c0.5-0.2,1-0.2,1.4,0.2c0.5,0.5,0.9,1,1.4,1.5c0.1,0,0.2-0.1,0.2-0.1c1.6-1.1,3.3-1.8,5.2-2c0.2,0,0.3-0.1,0.3-0.3
			c0-0.5,0-1.1,0-1.6c0-0.8,0.5-1.3,1.2-1.3s1.2,0.5,1.2,1.3c0,0.5,0,1.1,0,1.6c0,0.2,0,0.3,0.3,0.3c1.9,0.2,3.6,0.9,5.1,1.9
			c0.1,0.1,0.3,0,0.4,0c0.4-0.4,0.8-0.8,1.2-1.2c0.6-0.5,1.3-0.5,1.8,0s0.4,1.2-0.1,1.7C779.4-262.3,779-261.9,778.6-261.4z"/>
		<path class="st0" d="M767.6-232.3c0,4.9,0,9.7,0,14.6c0,2.2-1.5,4-3.7,4.3c-0.2,0-0.5,0-0.7,0c-6.3,0-12.5,0-18.8,0
			c-1,0-1.6-0.8-1.2-1.6c0.2-0.5,0.6-0.7,1.1-0.7c0.3,0,0.6,0,0.9,0c5.9,0,11.8,0,17.7,0c1.4,0,2.3-1,2.3-2.3c0-9.6,0-19.2,0-28.9
			c0-0.2,0-0.3,0-0.5c0.1-0.6,0.6-1.1,1.2-1.1s1.1,0.5,1.2,1.1c0,0.2,0,0.4,0,0.6C767.6-241.9,767.6-237.1,767.6-232.3z"/>
		<path class="st0" d="M772.4-232.3c0-4.8,0-9.6,0-14.4c0-0.2,0-0.4,0-0.6c0-0.6,0.6-1.1,1.2-1.1c0.6,0,1.1,0.5,1.2,1.1
			c0,0.2,0,0.3,0,0.5c0,9.6,0,19.3,0,28.9c0,0.9,0.3,1.6,1.1,2c0.3,0.2,0.8,0.2,1.2,0.2c6.1,0,12.2,0,18.4,0c0.2,0,0.4,0,0.6,0
			c0.6,0.1,1,0.6,0.9,1.2c0,0.6-0.5,1.1-1,1.1c-0.2,0-0.3,0-0.5,0c-6.2,0-12.4,0-18.5,0c-2.6,0-4.5-1.9-4.5-4.4
			C772.4-222.7,772.4-227.5,772.4-232.3z"/>
	</g>
</g>
<path class="st0" d="M84.5,37.8c-6-5.9-12-11.8-18-17.7c0,0,0,0,0,0v10.6c0,0-0.1,0-0.1,0c-1.2,0.1-2.4,0.1-3.7,0.3
	c-1.4,0.1-2.8,0.2-4.2,0.4c-2.2,0.3-4.4,0.8-6.5,1.5C48.1,34,44.8,36,42,38.9c-1.8,1.9-3.3,4-4.5,6.4c-1.6,3-2.6,6.2-3.4,9.5
	c0,0.2-0.1,0.4-0.1,0.6c0.1-0.1,0.2-0.1,0.2-0.2c1.2-0.8,2.4-1.7,3.7-2.5c2.7-1.8,5.7-3.3,8.7-4.5c4.6-1.9,9.3-3,14.2-3.4
	c1.8-0.1,3.7-0.3,5.5-0.5c0,0,0.1,0,0.2,0v11.2c0,0,0,0,0,0C72.4,49.6,78.4,43.7,84.5,37.8L84.5,37.8z M61.1,55.7c0-1.8,0-3.7,0-5.5
	c0-0.3,0-0.3-0.3-0.2C55.7,50.4,50.7,51.8,46,54c-3.4,1.6-6.5,3.6-9.4,5.8c-1.4,1-2.6,2.1-3.9,3.2c-0.6,0.5-1.3,0.9-2.1,0.9
	c-1.8,0-3.1-1.6-2.9-3.3c0.5-3.8,1.2-7.6,2.4-11.3c1.2-3.8,2.9-7.4,5.3-10.7c2.6-3.6,5.8-6.5,9.8-8.7c2.8-1.5,5.7-2.6,8.8-3.3
	c1.9-0.4,3.8-0.7,5.7-0.9c0.4,0,0.8-0.1,1.3-0.1c0.2,0,0.2-0.1,0.2-0.3c0-3.2,0-6.3,0-9.5c0-0.5,0-1.1,0-1.6
	c0.1-2.1,2.4-3.5,4.2-2.6c0.4,0.2,0.8,0.6,1.1,0.9c1.4,1.4,2.8,2.8,4.2,4.1c1.7,1.7,3.4,3.3,5.1,5c1.7,1.6,3.3,3.3,5,4.9
	c1.7,1.7,3.4,3.4,5.1,5c1.2,1.2,2.4,2.4,3.7,3.6c1.2,1.2,1.4,3.2,0,4.6c-1,0.9-1.9,1.9-2.9,2.9c-1.9,1.9-3.9,3.8-5.8,5.7
	c-1.8,1.8-3.6,3.5-5.4,5.3c-1.7,1.7-3.4,3.4-5.2,5.1c-1.4,1.4-2.8,2.7-4.1,4.1c-1.6,1.6-4.2,0.8-4.8-1.1c-0.1-0.4-0.2-0.8-0.2-1.2
	C61.1,59.1,61.1,57.4,61.1,55.7L61.1,55.7z"/>
<path class="st0" d="M46,85c-6.9,0-13.8,0-20.8,0c-1.6,0-3.2-0.3-4.8-0.8c-3.2-1.2-5.5-3.3-7.1-6.3c-0.8-1.5-1.2-3-1.4-4.6
	c0-0.5-0.1-1-0.1-1.5c0-13.9,0-27.9,0-41.8c0-3.7,1.4-6.9,4-9.4c2-2,4.5-3.2,7.3-3.6c0.6-0.1,1.1-0.1,1.7-0.1c5.3,0,10.5,0,15.8,0
	c1.3,0,2.3,0.9,2.6,2.1c0.3,1.2-0.4,2.4-1.6,2.9C41.4,22,41,22,40.6,22c-5.2,0-10.4,0-15.6,0c-3.3,0-6.2,2.1-7.4,5.2
	c-0.3,0.9-0.5,1.8-0.5,2.7c0,14,0,28.1,0,42.1c0,1.9,0.7,3.6,1.9,5c1.1,1.3,2.4,2.1,4.1,2.5c0.6,0.1,1.2,0.2,1.9,0.2
	c14.1,0,28.1,0,42.2,0c1.9,0,3.5-0.7,4.9-1.9c1.5-1.2,2.3-2.8,2.7-4.7c0.1-0.4,0.1-0.9,0.1-1.3c0-1.8,0-3.5,0-5.3
	c0-1.4,1.2-2.4,2.6-2.5c1.4,0,2.5,1.1,2.6,2.4c0,0.3,0,0.7,0,1c0,1.7,0,3.4,0,5.1c-0.1,2.6-0.9,4.9-2.4,7c-1.9,2.6-4.4,4.4-7.6,5.2
	c-0.9,0.2-1.9,0.4-2.9,0.4C60.1,84.9,53,84.9,46,85L46,85z"/>
<path class="st0" d="M-61.5,10.7c3.1-2.9,5.7-5.3,7.7-7.4c2-2.1,3.6-3.9,4.8-5.4c1.2-1.5,2-2.9,2.5-4.1s0.7-2.4,0.7-3.6
	c0-2-0.6-3.7-1.9-5c-1.3-1.3-3-2-5-2c-1.6,0-3.1,0.5-4.4,1.5c-1.4,1-2.4,2.3-3.3,4.1h-2.3c-0.8-1.7-1.9-3.1-3.2-4.1
	c-1.4-1-2.8-1.5-4.4-1.5c-2,0-3.7,0.7-5,2c-1.3,1.3-1.9,3-1.9,5c0,1.2,0.2,2.4,0.7,3.6C-76-5-75.2-3.6-74-2c1.2,1.6,2.8,3.4,4.8,5.4
	C-67.1,5.4-64.6,7.9-61.5,10.7L-61.5,10.7z M-61.5,14.4l-1.9-1.7c-3.3-3-6-5.6-8.1-7.8s-3.8-4.1-5.1-5.8c-1.3-1.7-2.2-3.3-2.7-4.7
	C-79.7-7-80-8.4-80-9.8c0-2.8,0.9-5.1,2.8-7c1.9-1.9,4.2-2.8,6.9-2.8c1.8,0,3.4,0.4,4.9,1.3c1.5,0.8,2.8,2,3.9,3.6
	c1.3-1.7,2.7-2.9,4.1-3.7c1.5-0.8,3-1.2,4.7-1.2c2.7,0,5.1,0.9,6.9,2.8c1.9,1.9,2.8,4.2,2.8,7c0,1.4-0.3,2.8-0.8,4.2
	c-0.5,1.4-1.4,2.9-2.7,4.7c-1.3,1.7-3,3.7-5.1,5.8c-2.1,2.2-4.8,4.8-8.1,7.8L-61.5,14.4L-61.5,14.4z"/>
</svg>
