<?xml version="1.0" encoding="utf-8"?>
<!-- Generator: Adobe Illustrator 27.2.0, SVG Export Plug-In . SVG Version: 6.00 Build 0)  -->
<svg version="1.1" id="Capa_1" xmlns="http://www.w3.org/2000/svg" xmlns:xlink="http://www.w3.org/1999/xlink" x="0px" y="0px"
	 viewBox="0 0 329.8 329.8" style="enable-background:new 0 0 329.8 329.8;" xml:space="preserve">
<style type="text/css">
	.st0{fill:none;}
	.st1{fill:#BDEB00;}
</style>
<path class="st0" d="M4789.6,1493H4610c-5.3,0-9.6,4.3-9.6,9.6v271.5c0,5.3,4.3,9.6,9.6,9.6h179.6c5.3,0,9.6-4.3,9.6-9.6v-271.5
	C4799.2,1497.4,4794.9,1493,4789.6,1493z"/>
<path class="st0" d="M2640.8,1041h-179.6c-5.3,0-9.6,4.3-9.6,9.6v271.5c0,5.3,4.3,9.6,9.6,9.6h179.6c5.3,0,9.6-4.3,9.6-9.6v-271.5
	C2650.5,1045.4,2646.1,1041,2640.8,1041z"/>
<path class="st0" d="M2332.4,906.8h-213.6c-6.3,0-11.5,5.1-11.5,11.5v322.9c0,6.3,5.1,11.5,11.5,11.5h213.6
	c6.3,0,11.5-5.1,11.5-11.5V918.3C2343.8,912,2338.7,906.8,2332.4,906.8z"/>
<g>
	<defs>
		<path id="SVGID_1_" d="M1895.6,2057.2h-146.7c-6.8,0-12.4-5.6-12.4-12.4v-146.7c0-6.8,5.6-12.4,12.4-12.4h146.7
			c6.8,0,12.4,5.6,12.4,12.4v146.7C1908,2051.6,1902.4,2057.2,1895.6,2057.2z"/>
	</defs>
	<clipPath id="SVGID_00000082333208182520257630000016985272716913726874_">
		<use xlink:href="#SVGID_1_"  style="overflow:visible;"/>
	</clipPath>
	<g style="clip-path:url(#SVGID_00000082333208182520257630000016985272716913726874_);">
		
			<image style="overflow:visible;" width="1024" height="1024" xlink:href="AE8DCA23.jpg"  transform="matrix(0.2959 0 0 0.2959 1669.5242 1882.4357)">
		</image>
	</g>
</g>
<g>
	<defs>
		<path id="SVGID_00000167373115692331747830000013402837087385294263_" d="M2088.8,2057.2h-146.7c-6.8,0-12.4-5.6-12.4-12.4v-146.7
			c0-6.8,5.6-12.4,12.4-12.4h146.7c6.8,0,12.4,5.6,12.4,12.4v146.7C2101.2,2051.6,2095.6,2057.2,2088.8,2057.2z"/>
	</defs>
	<clipPath id="SVGID_00000014601771167477486480000014517982941730436522_">
		<use xlink:href="#SVGID_00000167373115692331747830000013402837087385294263_"  style="overflow:visible;"/>
	</clipPath>
	<g style="clip-path:url(#SVGID_00000014601771167477486480000014517982941730436522_);">
		
			<image style="overflow:visible;" width="828" height="458" xlink:href="AE8DCA21.jpg"  transform="matrix(0.5153 0 0 0.5153 1783.485 1872.4357)">
		</image>
	</g>
</g>
<g>
	<defs>
		<path id="SVGID_00000054981673889244637260000000838908918404235402_" d="M2282,2057.2h-146.7c-6.8,0-12.4-5.6-12.4-12.4v-146.7
			c0-6.8,5.6-12.4,12.4-12.4H2282c6.8,0,12.4,5.6,12.4,12.4v146.7C2294.4,2051.6,2288.8,2057.2,2282,2057.2z"/>
	</defs>
	<clipPath id="SVGID_00000104680948944193895720000006872248077013594518_">
		<use xlink:href="#SVGID_00000054981673889244637260000000838908918404235402_"  style="overflow:visible;"/>
	</clipPath>
	
		<g transform="matrix(1 0 0 1 1.220703e-04 -1.220703e-04)" style="clip-path:url(#SVGID_00000104680948944193895720000006872248077013594518_);">
		
			<image style="overflow:visible;" width="626" height="417" xlink:href="AE8DCA27.jpg"  transform="matrix(0.4508 0 0 0.4508 2040.2506 1878.4357)">
		</image>
	</g>
</g>
<g>
	<defs>
		<path id="SVGID_00000180340638659555331220000015440159123524256429_" d="M2475.1,2057.2h-146.7c-6.8,0-12.4-5.6-12.4-12.4v-146.7
			c0-6.8,5.6-12.4,12.4-12.4h146.7c6.8,0,12.4,5.6,12.4,12.4v146.7C2487.5,2051.6,2481.9,2057.2,2475.1,2057.2z"/>
	</defs>
	<clipPath id="SVGID_00000147208258195819202900000008375845062640491142_">
		<use xlink:href="#SVGID_00000180340638659555331220000015440159123524256429_"  style="overflow:visible;"/>
	</clipPath>
	<g style="clip-path:url(#SVGID_00000147208258195819202900000008375845062640491142_);">
		
			<image style="overflow:visible;" width="414" height="402" xlink:href="AE8DCA20.jpg"  transform="matrix(0.5721 0 0 0.5721 2278.5242 1878.4357)">
		</image>
	</g>
</g>
<rect x="-385.7" y="235.6" class="st1" width="56.2" height="61"/>
<g>
	<rect x="67.4" y="60.8" class="st1" width="194.9" height="208.2"/>
</g>
</svg>
