<?xml version="1.0" encoding="utf-8"?>
<!-- Generator: Adobe Illustrator 27.2.0, SVG Export Plug-In . SVG Version: 6.00 Build 0)  -->
<svg version="1.1" id="Capa_1" xmlns="http://www.w3.org/2000/svg" xmlns:xlink="http://www.w3.org/1999/xlink" x="0px" y="0px"
	 viewBox="0 0 329.8 329.8" style="enable-background:new 0 0 329.8 329.8;" xml:space="preserve">
<style type="text/css">
	.st0{fill:none;}
	.st1{fill:#BDEB00;}
</style>
<circle class="st0" cx="164.8" cy="163.9" r="156.7"/>
<path class="st0" d="M4789.6,1493H4610c-5.3,0-9.6,4.3-9.6,9.6v271.5c0,5.3,4.3,9.6,9.6,9.6h179.6c5.3,0,9.6-4.3,9.6-9.6v-271.5
	C4799.2,1497.4,4794.9,1493,4789.6,1493z"/>
<path class="st0" d="M2640.8,1041h-179.6c-5.3,0-9.6,4.3-9.6,9.6v271.5c0,5.3,4.3,9.6,9.6,9.6h179.6c5.3,0,9.6-4.3,9.6-9.6v-271.5
	C2650.5,1045.4,2646.1,1041,2640.8,1041z"/>
<path class="st0" d="M2332.4,906.8h-213.6c-6.3,0-11.5,5.1-11.5,11.5v322.9c0,6.3,5.1,11.5,11.5,11.5h213.6
	c6.3,0,11.5-5.1,11.5-11.5V918.3C2343.8,912,2338.7,906.8,2332.4,906.8z"/>
<g>
	<defs>
		<path id="SVGID_1_" d="M1895.6,2057.2h-146.7c-6.8,0-12.4-5.6-12.4-12.4v-146.7c0-6.8,5.6-12.4,12.4-12.4h146.7
			c6.8,0,12.4,5.6,12.4,12.4v146.7C1908,2051.6,1902.4,2057.2,1895.6,2057.2z"/>
	</defs>
	<clipPath id="SVGID_00000060020733354792938330000000650630280411090856_">
		<use xlink:href="#SVGID_1_"  style="overflow:visible;"/>
	</clipPath>
	<g style="clip-path:url(#SVGID_00000060020733354792938330000000650630280411090856_);">
		
			<image style="overflow:visible;" width="1024" height="1024" xlink:href="D59C600A.jpg"  transform="matrix(0.2959 0 0 0.2959 1669.5242 1882.4357)">
		</image>
	</g>
</g>
<g>
	<defs>
		<path id="SVGID_00000032612930515158860390000015331457093766630840_" d="M2088.8,2057.2h-146.7c-6.8,0-12.4-5.6-12.4-12.4v-146.7
			c0-6.8,5.6-12.4,12.4-12.4h146.7c6.8,0,12.4,5.6,12.4,12.4v146.7C2101.2,2051.6,2095.6,2057.2,2088.8,2057.2z"/>
	</defs>
	<clipPath id="SVGID_00000151535985121737410940000001899123545956507058_">
		<use xlink:href="#SVGID_00000032612930515158860390000015331457093766630840_"  style="overflow:visible;"/>
	</clipPath>
	<g style="clip-path:url(#SVGID_00000151535985121737410940000001899123545956507058_);">
		
			<image style="overflow:visible;" width="828" height="458" xlink:href="D59C600E.jpg"  transform="matrix(0.5153 0 0 0.5153 1783.485 1872.4357)">
		</image>
	</g>
</g>
<g>
	<defs>
		<path id="SVGID_00000029030757184122426350000003809919013787783855_" d="M2282,2057.2h-146.7c-6.8,0-12.4-5.6-12.4-12.4v-146.7
			c0-6.8,5.6-12.4,12.4-12.4H2282c6.8,0,12.4,5.6,12.4,12.4v146.7C2294.4,2051.6,2288.8,2057.2,2282,2057.2z"/>
	</defs>
	<clipPath id="SVGID_00000029733513091229900780000006802724024727985837_">
		<use xlink:href="#SVGID_00000029030757184122426350000003809919013787783855_"  style="overflow:visible;"/>
	</clipPath>
	
		<g transform="matrix(1 0 0 1 1.220703e-04 -1.220703e-04)" style="clip-path:url(#SVGID_00000029733513091229900780000006802724024727985837_);">
		
			<image style="overflow:visible;" width="626" height="417" xlink:href="D59C6009.jpg"  transform="matrix(0.4508 0 0 0.4508 2040.2506 1878.4357)">
		</image>
	</g>
</g>
<g>
	<defs>
		<path id="SVGID_00000034059618813070642130000015440105190570928571_" d="M2475.1,2057.2h-146.7c-6.8,0-12.4-5.6-12.4-12.4v-146.7
			c0-6.8,5.6-12.4,12.4-12.4h146.7c6.8,0,12.4,5.6,12.4,12.4v146.7C2487.5,2051.6,2481.9,2057.2,2475.1,2057.2z"/>
	</defs>
	<clipPath id="SVGID_00000102533984575975452620000018057694856164247691_">
		<use xlink:href="#SVGID_00000034059618813070642130000015440105190570928571_"  style="overflow:visible;"/>
	</clipPath>
	<g style="clip-path:url(#SVGID_00000102533984575975452620000018057694856164247691_);">
		
			<image style="overflow:visible;" width="414" height="402" xlink:href="D59C600B.jpg"  transform="matrix(0.5721 0 0 0.5721 2278.5242 1878.4357)">
		</image>
	</g>
</g>
<rect x="-677.3" y="235.6" class="st1" width="20.6" height="61"/>
<rect x="-385.7" y="235.6" class="st1" width="56.2" height="61"/>
<rect x="-640.8" y="235.6" class="st1" width="20.6" height="61"/>
<g id="_x36_Bs5jg.tif">
	<g>
		<g>
			<path class="st1" d="M13.8,218c0-35.4,0-70.9,0-106.3c0.4-1.1,0.9-2.1,1.1-3.2c7.4-44.4,32.4-74.2,74.8-89.2
				c7.5-2.7,15.5-3.7,23.3-5.6c34.6,0,69.3,0,103.9,0c1.3,0.4,2.6,0.9,3.9,1.1c43.2,6.9,72.9,30.8,88.6,71.5
				c3.1,8.1,4.5,16.9,6.7,25.4c0,35.4,0,70.9,0,106.3c-0.4,1.1-0.9,2.1-1.1,3.2c-7.4,44.1-32.1,73.9-74.2,89
				c-7.7,2.7-15.9,3.9-23.9,5.8c-34.6,0-69.3,0-103.9,0c-1.3-0.4-2.6-0.9-3.9-1.1c-43.5-7-73.2-31-88.9-72.1
				C17.1,235,15.8,226.3,13.8,218z M140.6,144.7c2.1-2.4,3.3-3.8,4.6-5.1c6.6-6.7,13.6-13.1,19.8-20.2c9.7-11.1,4.2-28.4-9.9-32
				c-8.4-2.1-15.3,0.7-21.4,6.8c-18.1,18.1-36.1,36.3-54.7,53.8c-11.1,10.5-8.5,24.3,0.3,33.2c14.2,14.2,28.4,28.4,42.6,42.5
				c4.7,4.7,9.3,9.6,14.3,14.1c8.3,7.4,20,7.1,27.7-0.4c7.6-7.5,8.1-19.4,0.6-27.7c-6.4-7-13.2-13.5-19.9-20.2
				c-1.1-1.2-2.1-2.5-3.8-4.4c3.2,0,5.3,0,7.4,0c28.9,0,57.8,0.1,86.7-0.1c3.7,0,7.6-0.4,10.9-1.7c8.6-3.2,13.6-12.8,12-22
				c-1.6-9.3-9.6-16.3-19.6-16.4c-30.1-0.2-60.2-0.1-90.3-0.1C146.1,144.7,144,144.7,140.6,144.7z"/>
		</g>
	</g>
</g>
<g id="_x36_Bs5jg.tif_00000066511544606368100950000007499504427263525280_">
	<g>
		<g>
			<path class="st1" d="M863.2,354c0,12.1,0,24.1,0,36.2c-0.1,0.4-0.3,0.7-0.4,1.1c-2.5,15.1-11.1,25.3-25.5,30.4
				c-2.6,0.9-5.3,1.3-8,1.9c-11.8,0-23.6,0-35.4,0c-0.4-0.1-0.9-0.3-1.3-0.4c-14.7-2.4-24.8-10.5-30.2-24.4
				c-1.1-2.8-1.5-5.8-2.3-8.7c0-12.1,0-24.1,0-36.2c0.1-0.4,0.3-0.7,0.4-1.1c2.5-15,10.9-25.2,25.3-30.3c2.6-0.9,5.4-1.3,8.1-2
				c11.8,0,23.6,0,35.4,0c0.4,0.1,0.9,0.3,1.3,0.4c14.8,2.4,24.9,10.6,30.3,24.5C862,348.2,862.5,351.2,863.2,354z M819.9,379
				c-0.7,0.8-1.1,1.3-1.6,1.7c-2.3,2.3-4.6,4.5-6.7,6.9c-3.3,3.8-1.4,9.7,3.4,10.9c2.9,0.7,5.2-0.2,7.3-2.3
				c6.2-6.2,12.3-12.4,18.6-18.3c3.8-3.6,2.9-8.3-0.1-11.3c-4.8-4.8-9.7-9.7-14.5-14.5c-1.6-1.6-3.2-3.3-4.9-4.8
				c-2.8-2.5-6.8-2.4-9.4,0.2c-2.6,2.6-2.8,6.6-0.2,9.4c2.2,2.4,4.5,4.6,6.8,6.9c0.4,0.4,0.7,0.8,1.3,1.5c-1.1,0-1.8,0-2.5,0
				c-9.9,0-19.7,0-29.6,0c-1.2,0-2.6,0.1-3.7,0.6c-2.9,1.1-4.6,4.4-4.1,7.5c0.6,3.2,3.3,5.6,6.7,5.6c10.3,0.1,20.5,0,30.8,0
				C818.1,379,818.8,379,819.9,379z"/>
		</g>
	</g>
</g>
</svg>
