<?xml version="1.0" encoding="utf-8"?>
<!-- Generator: Adobe Illustrator 27.2.0, SVG Export Plug-In . SVG Version: 6.00 Build 0)  -->
<svg version="1.1" id="Capa_1" xmlns="http://www.w3.org/2000/svg" xmlns:xlink="http://www.w3.org/1999/xlink" x="0px" y="0px"
	 viewBox="0 0 960 600" style="enable-background:new 0 0 960 600;" xml:space="preserve">
<style type="text/css">
	.st0{fill:#333333;}
	.st1{fill:#BDEB00;}
	.st2{fill:#FFFFFF;}
</style>
<path class="st0" d="M1893.7,170.3c6.3,3.7,10.1,10.5,10.1,17.8v63c0,11.7-8.2,21.6-19.1,24.1c-6.3,1.5-12.7,3-18.8,5.1l-67.2,22.6
	c-13,0-25.2-6.1-33-16.4c-8.3-11-22.6-24.1-45.1-27.5c-4.7-0.7-7-6.1-4.2-10c7.6-10.4,19.2-27.8,22.7-42.6
	c5.5-22.8,48.6-62,78.5-64.3C1839.6,140.2,1876.1,159.8,1893.7,170.3z"/>
<path class="st0" d="M1930.3,170.3c-6.3,3.7-10.1,10.5-10.1,17.8v63c0,11.7,8.2,21.6,19.1,24.1c6.3,1.5,12.7,3,18.8,5.1l67.2,22.6
	c13,0,25.2-6.1,33-16.4c8.3-11,22.6-24.1,45.1-27.5c4.7-0.7,7-6.1,4.2-10c-7.6-10.4-19.2-27.8-22.7-42.6
	c-5.5-22.8-48.6-62-78.5-64.3C1984.4,140.2,1947.9,159.8,1930.3,170.3z"/>
<g>
	<path class="st0" d="M1864.8,40.6l16.9,22c3.2,4.2,5.7,9,7.4,14l20.9,64.2c0.2,0.7,0.4,1.5,0.4,2.3l0,0c0,7.2-9.2,10.1-13.3,4.2
		c-16.7-23.6-42.6-67.3-37.6-105.3C1859.8,39.4,1863.2,38.5,1864.8,40.6z"/>
</g>
<g>
	<path class="st1" d="M1764.7,106.9l68.6-33.8c7.3-3.6,16,0.5,17.9,8.4c2.5,10.3,7,24.6,14.4,38.9c3.8,7.3-2.4,15.8-10.5,14.4
		l-88.7-16.1C1760.4,117.6,1759.3,109.6,1764.7,106.9z"/>
</g>
<g>
	<path class="st1" d="M1796.4,140.4c0,0-50.2-25.1-85.5-9.4c-35.3,15.7-76.9,42.4-55.7,164c0,0,55.7-41.6,63.6-72.2
		C1726.6,192.2,1760.3,142.7,1796.4,140.4z"/>
</g>
<g>
	<path class="st1" d="M1715.1,287.5v38.9c0,0-17.7,95.1-65.2,131.2c-6.9,5.2-16.9,0.9-17.9-7.7l-5.5-47.4c-1.3-10.8,0.2-21.8,4.2-32
		l26.8-67.7c0,0,29.8-19.6,42.4-30.6l0,0C1708.3,272.2,1715.1,279,1715.1,287.5z"/>
</g>
<g>
	<path class="st1" d="M1632.1,332.9c2.2-1.7,5.2,0.8,3.8,3.3c-6.3,11.3-15.8,30.9-17.3,48.3c-1.5,17.2-1,41.6-0.5,56.4
		c0.1,3.2-4.1,4.3-5.6,1.5l-7.3-14c-3.1-5.9-4.6-12.6-4.3-19.3C1601.6,390.6,1606.4,353.2,1632.1,332.9z"/>
</g>
<g>
	<path class="st1" d="M1718.1,361.1v11.8c0,5.1-0.9,10.2-2.7,14.9c-3.8,10.2-12,28-25.3,39.9c-1.4,1.3-3.5-0.4-2.7-2.1
		c6.3-12.8,19.7-41.5,27.1-65.2C1715.1,358.5,1718.1,359,1718.1,361.1z"/>
</g>
<g>
	<path class="st0" d="M1903.9,373.4v52.1c0,3.9-3.2,7.1-7.1,7.1h-46.7c-4.6,0-8.8-2.4-11.1-6.4l-5.4-9.4c-5.1-8.8-3-20,4.9-26.3
		c12.2-9.8,32.2-22.1,57.7-24.1C1900.3,366,1903.9,369.2,1903.9,373.4z"/>
</g>
<g>
	<g>
		<path class="st0" d="M1895.3,536.1h-33.2c-8.4,0-15.2-6.8-15.2-15.2v-60.5c0-8.4,6.8-15.2,15.2-15.2h33.2c4.8,0,8.6,3.9,8.6,8.6
			v73.8C1903.9,532.3,1900,536.1,1895.3,536.1z"/>
	</g>
</g>
<g>
	<path class="st0" d="M1779.3,404.9l21.5,24.4c9,10.3,14,23.5,14,37.2v29.7c0,2.3-2.7,3.6-4.5,2.1l-18.7-16.1
		c-10.8-9.3-17-22.9-17-37.1v-38.3C1774.5,404.1,1777.6,403,1779.3,404.9z"/>
</g>
<g>
	<path class="st0" d="M1782.8,489.1l21.3,19.7c6.8,6.3,10.7,15.3,10.7,24.6v22.3c0,4.5-5.5,6.6-8.5,3.4l-21.9-23.2
		c-6.3-6.7-9.9-15.6-9.9-24.9v-18.2C1774.5,488.4,1779.6,486.1,1782.8,489.1z"/>
</g>
<g>
	<g>
		<path class="st0" d="M1959.2,40.6l-16.9,22c-3.2,4.2-5.7,9-7.4,14l-20.9,64.2c-0.2,0.7-0.4,1.5-0.4,2.3l0,0
			c0,7.2,9.2,10.1,13.3,4.2c16.7-23.6,42.6-67.3,37.6-105.3C1964.2,39.4,1960.8,38.5,1959.2,40.6z"/>
	</g>
</g>
<g>
	<g>
		<path class="st1" d="M2059.3,106.9l-68.6-33.8c-7.3-3.6-16,0.5-17.9,8.4c-2.5,10.3-7,24.6-14.4,38.9c-3.8,7.3,2.4,15.8,10.5,14.4
			l88.7-16.1C2063.6,117.6,2064.7,109.6,2059.3,106.9z"/>
	</g>
</g>
<g>
	<g>
		<path class="st1" d="M2027.6,140.4c0,0,50.2-25.1,85.5-9.4c35.3,15.7,76.9,42.4,55.7,164c0,0-55.7-41.6-63.6-72.2
			C2097.4,192.2,2063.7,142.7,2027.6,140.4z"/>
	</g>
</g>
<g>
	<g>
		<path class="st1" d="M2108.9,287.5v38.9c0,0,17.7,95.1,65.2,131.2c6.9,5.2,16.9,0.9,17.9-7.7l5.5-47.4c1.3-10.8-0.2-21.8-4.2-32
			l-26.8-67.7c0,0-29.8-19.6-42.4-30.6l0,0C2115.7,272.2,2108.9,279,2108.9,287.5z"/>
	</g>
</g>
<g>
	<g>
		<path class="st1" d="M2191.9,332.9c-2.2-1.7-5.2,0.8-3.8,3.3c6.3,11.3,15.8,30.9,17.3,48.3c1.5,17.2,1,41.6,0.5,56.4
			c-0.1,3.2,4.1,4.3,5.6,1.5l7.3-14c3.1-5.9,4.6-12.6,4.3-19.3C2222.4,390.6,2217.6,353.2,2191.9,332.9z"/>
	</g>
</g>
<g>
	<g>
		<path class="st1" d="M2105.9,361.1v11.8c0,5.1,0.9,10.2,2.7,14.9c3.8,10.2,12,28,25.3,39.9c1.4,1.3,3.5-0.4,2.7-2.1
			c-6.3-12.8-19.7-41.5-27.1-65.2C2108.9,358.5,2105.9,359,2105.9,361.1z"/>
	</g>
</g>
<g>
	<g>
		<path class="st0" d="M1920.1,373.4v52.1c0,3.9,3.2,7.1,7.1,7.1h46.7c4.6,0,8.8-2.4,11.1-6.4l5.4-9.4c5.1-8.8,3-20-4.9-26.3
			c-12.2-9.8-32.2-22.1-57.7-24.1C1923.7,366,1920.1,369.2,1920.1,373.4z"/>
	</g>
</g>
<g>
	<g>
		<path class="st0" d="M1928.7,536.1h33.2c8.4,0,15.2-6.8,15.2-15.2v-60.5c0-8.4-6.8-15.2-15.2-15.2h-33.2c-4.8,0-8.6,3.9-8.6,8.6
			v73.8C1920.1,532.3,1924,536.1,1928.7,536.1z"/>
	</g>
</g>
<g>
	<g>
		<path class="st0" d="M2044.7,404.9l-21.5,24.4c-9,10.3-14,23.5-14,37.2v29.7c0,2.3,2.7,3.6,4.5,2.1l18.7-16.1
			c10.8-9.3,17-22.9,17-37.1v-38.3C2049.5,404.1,2046.4,403,2044.7,404.9z"/>
	</g>
</g>
<g>
	<g>
		<path class="st0" d="M2041.2,489.1l-21.3,19.7c-6.8,6.3-10.7,15.3-10.7,24.6v22.3c0,4.5,5.5,6.6,8.5,3.4l21.9-23.2
			c6.3-6.7,9.9-15.6,9.9-24.9v-18.2C2049.5,488.4,2044.4,486.1,2041.2,489.1z"/>
	</g>
</g>
<g>
	<path class="st0" d="M1903.5,296.4v48.7c0,3.7-2.7,6.9-6.6,7.8l-28.2,6.5c-14.5,3.4-37.7,14.3-37.7,14.3
		c-8.1,8.3-48.7-58.4-16.8-58.4l80.6-27C1899.7,288.3,1903.5,291.9,1903.5,296.4z"/>
</g>
<g>
	<g>
		<path class="st0" d="M1919.8,296.4v48.7c0,3.7,2.7,6.9,6.6,7.8l28.2,6.5c14.5,3.4,37.7,14.3,37.7,14.3
			c8.1,8.3,50.2-58.4,16.8-58.4l-80.6-27C1923.7,288.3,1919.8,291.9,1919.8,296.4z"/>
	</g>
</g>
<g>
	<path class="st0" d="M2648.1,396.3c4.1,2.4,6.6,6.8,6.6,11.6V449c0,7.7-5.3,14.1-12.5,15.8c-4.1,1-8.3,2-12.3,3.3l-43.9,14.7
		c-8.5,0-16.4-4-21.5-10.7c-5.4-7.2-14.8-15.7-29.5-17.9c-3.1-0.5-4.6-4-2.8-6.5c5-6.8,12.5-18.2,14.8-27.8
		c3.6-14.9,31.8-40.5,51.2-42C2612.7,376.7,2636.5,389.5,2648.1,396.3z"/>
	<path class="st0" d="M2671.9,396.3c-4.1,2.4-6.6,6.8-6.6,11.6V449c0,7.7,5.3,14.1,12.5,15.8c4.1,1,8.3,2,12.3,3.3l43.9,14.7
		c8.5,0,16.4-4,21.5-10.7c5.4-7.2,14.8-15.7,29.5-17.9c3.1-0.5,4.6-4,2.8-6.5c-5-6.8-12.5-18.2-14.8-27.8
		c-3.6-14.9-31.8-40.5-51.2-42C2707.3,376.7,2683.4,389.5,2671.9,396.3z"/>
	<g>
		<g>
			<path class="st0" d="M2629.2,311.6l11,14.4c2.1,2.8,3.7,5.8,4.8,9.1l13.7,41.9c0.2,0.5,0.2,1,0.2,1.5l0,0c0,4.7-6,6.6-8.7,2.8
				c-10.9-15.4-27.8-43.9-24.6-68.8C2625.9,310.8,2628.1,310.3,2629.2,311.6z"/>
		</g>
		<g>
			<path class="st1" d="M2563.8,354.9l44.8-22c4.7-2.3,10.4,0.3,11.7,5.5c1.6,6.8,4.5,16,9.4,25.4c2.5,4.8-1.6,10.3-6.9,9.4
				l-57.9-10.5C2561,361.9,2560.3,356.7,2563.8,354.9z"/>
		</g>
		<g>
			<g>
				<path class="st1" d="M2584.5,376.8c0,0-32.8-16.4-55.8-6.1s-50.2,27.7-36.4,107.1c0,0,36.4-27.2,41.5-47.1
					C2538.9,410.6,2560.9,378.3,2584.5,376.8z"/>
			</g>
		</g>
		<g>
			<g>
				<path class="st1" d="M2531.5,472.8v25.4c0,0-11.5,62.1-42.6,85.7c-4.5,3.4-11.1,0.6-11.7-5l-3.6-30.9
					c-0.8-7.1,0.1-14.3,2.7-20.9l17.5-44.2c0,0,19.5-12.8,27.7-20l0,0C2527,462.8,2531.5,467.3,2531.5,472.8z"/>
			</g>
		</g>
		<g>
			<path class="st0" d="M2477.2,502.5c1.4-1.1,3.4,0.5,2.5,2.1c-4.1,7.4-10.3,20.2-11.3,31.6c-1,11.2-0.7,27.1-0.4,36.9
				c0.1,2.1-2.7,2.8-3.7,1l-4.8-9.1c-2-3.9-3-8.2-2.8-12.6C2457.3,540.2,2460.5,515.7,2477.2,502.5z"/>
		</g>
		<g>
			<path class="st0" d="M2533.4,520.9v7.7c0,3.3-0.6,6.6-1.8,9.8c-2.5,6.7-7.8,18.3-16.5,26.1c-0.9,0.8-2.3-0.2-1.8-1.3
				c4.1-8.4,12.9-27.1,17.7-42.6C2531.4,519.2,2533.4,519.5,2533.4,520.9z"/>
		</g>
		<g>
			<path class="st0" d="M2654.7,528.9v34c0,2.6-2.1,4.6-4.6,4.6h-30.5c-3,0-5.8-1.6-7.3-4.2l-3.5-6.1c-3.3-5.7-2-13,3.2-17.2
				c7.9-6.4,21-14.4,37.7-15.8C2652.3,524.1,2654.7,526.2,2654.7,528.9z"/>
		</g>
		<g>
			<g>
				<path class="st0" d="M2649.1,635.2h-21.7c-5.5,0-9.9-4.5-9.9-9.9v-39.5c0-5.5,4.5-9.9,9.9-9.9h21.7c3.1,0,5.6,2.5,5.6,5.6v48.2
					C2654.7,632.7,2652.2,635.2,2649.1,635.2z"/>
			</g>
		</g>
		<g>
			<path class="st0" d="M2573.3,549.5l14,15.9c5.9,6.7,9.2,15.3,9.2,24.3v19.4c0,1.5-1.8,2.3-2.9,1.4l-12.2-10.5
				c-7.1-6.1-11.1-14.9-11.1-24.2v-25C2570.2,549,2572.2,548.2,2573.3,549.5z"/>
		</g>
		<g>
			<path class="st0" d="M2575.6,604.5l13.9,12.9c4.5,4.1,7,10,7,16.1v14.5c0,2.9-3.6,4.3-5.6,2.2l-14.3-15.2
				c-4.1-4.4-6.4-10.2-6.4-16.3v-11.9C2570.2,604,2573.5,602.5,2575.6,604.5z"/>
		</g>
		<g>
			<g>
				<path class="st0" d="M2690.8,311.6l-11,14.4c-2.1,2.8-3.7,5.8-4.8,9.1l-13.7,41.9c-0.2,0.5-0.2,1-0.2,1.5l0,0
					c0,4.7,6,6.6,8.7,2.8c10.9-15.4,27.8-43.9,24.6-68.8C2694,310.8,2691.8,310.3,2690.8,311.6z"/>
			</g>
		</g>
		<g>
			<g>
				<path class="st1" d="M2756.1,354.9l-44.8-22c-4.7-2.3-10.4,0.3-11.7,5.5c-1.6,6.8-4.5,16-9.4,25.4c-2.5,4.8,1.6,10.3,6.9,9.4
					l57.9-10.5C2758.9,361.9,2759.7,356.7,2756.1,354.9z"/>
			</g>
		</g>
		<g>
			<g>
				<g>
					<path class="st1" d="M2735.5,376.8c0,0,32.8-16.4,55.8-6.1s50.2,27.7,36.4,107.1c0,0-36.4-27.2-41.5-47.1
						C2781.1,410.6,2759,378.3,2735.5,376.8z"/>
				</g>
			</g>
		</g>
		<g>
			<g>
				<g>
					<path class="st1" d="M2788.5,472.8v25.4c0,0,11.5,62.1,42.6,85.7c4.5,3.4,11.1,0.6,11.7-5l3.6-30.9c0.8-7.1-0.1-14.3-2.7-20.9
						l-17.5-44.2c0,0-19.5-12.8-27.7-20l0,0C2793,462.8,2788.5,467.3,2788.5,472.8z"/>
				</g>
			</g>
		</g>
		<g>
			<g>
				<path class="st0" d="M2842.7,502.5c-1.4-1.1-3.4,0.5-2.5,2.1c4.1,7.4,10.3,20.2,11.3,31.6c1,11.2,0.7,27.1,0.4,36.9
					c-0.1,2.1,2.7,2.8,3.7,1l4.8-9.1c2-3.9,3-8.2,2.8-12.6C2862.7,540.2,2859.5,515.7,2842.7,502.5z"/>
			</g>
		</g>
		<g>
			<g>
				<path class="st0" d="M2786.6,520.9v7.7c0,3.3,0.6,6.6,1.8,9.8c2.5,6.7,7.8,18.3,16.5,26.1c0.9,0.8,2.3-0.2,1.8-1.3
					c-4.1-8.4-12.9-27.1-17.7-42.6C2788.5,519.2,2786.6,519.5,2786.6,520.9z"/>
			</g>
		</g>
		<g>
			<g>
				<path class="st0" d="M2665.3,528.9v34c0,2.6,2.1,4.6,4.6,4.6h30.5c3,0,5.8-1.6,7.3-4.2l3.5-6.1c3.3-5.7,2-13-3.2-17.2
					c-7.9-6.4-21-14.4-37.7-15.8C2667.6,524.1,2665.3,526.2,2665.3,528.9z"/>
			</g>
		</g>
		<g>
			<g>
				<path class="st0" d="M2670.9,635.2h21.7c5.5,0,9.9-4.5,9.9-9.9v-39.5c0-5.5-4.5-9.9-9.9-9.9h-21.7c-3.1,0-5.6,2.5-5.6,5.6v48.2
					C2665.3,632.7,2667.8,635.2,2670.9,635.2z"/>
			</g>
		</g>
		<g>
			<g>
				<path class="st0" d="M2746.6,549.5l-14,15.9c-5.9,6.7-9.2,15.3-9.2,24.3v19.4c0,1.5,1.8,2.3,2.9,1.4l12.2-10.5
					c7.1-6.1,11.1-14.9,11.1-24.2v-25C2749.8,549,2747.7,548.2,2746.6,549.5z"/>
			</g>
		</g>
		<g>
			<g>
				<path class="st0" d="M2744.4,604.5l-13.9,12.9c-4.5,4.1-7,10-7,16.1v14.5c0,2.9,3.6,4.3,5.6,2.2l14.3-15.2
					c4.1-4.4,6.4-10.2,6.4-16.3v-11.9C2749.8,604,2746.4,602.5,2744.4,604.5z"/>
			</g>
		</g>
		<g>
			<path class="st0" d="M2654.5,478.6v31.8c0,2.4-1.8,4.5-4.3,5.1l-18.4,4.3c-9.5,2.2-24.6,9.3-24.6,9.3c-5.3,5.4-31.8-38.1-11-38.1
				l52.6-17.6C2651.9,473.4,2654.5,475.7,2654.5,478.6z"/>
		</g>
		<g>
			<g>
				<path class="st0" d="M2665.1,478.6v31.8c0,2.4,1.8,4.5,4.3,5.1l18.4,4.3c9.5,2.2,24.6,9.3,24.6,9.3c5.3,5.4,32.8-38.1,11-38.1
					l-52.6-17.6C2667.6,473.4,2665.1,475.7,2665.1,478.6z"/>
			</g>
		</g>
	</g>
</g>
<g>
	<path class="st0" d="M2648.1,1170.2c4.1,2.4,6.6,6.8,6.6,11.6v41.1c0,7.7-5.3,14.1-12.5,15.8c-4.1,1-8.3,2-12.3,3.3l-43.9,14.7
		c-8.5,0-16.4-4-21.5-10.7c-5.4-7.2-14.8-15.7-29.5-17.9c-3.1-0.5-4.6-4-2.8-6.5c5-6.8,12.5-18.2,14.8-27.8
		c3.6-14.9,31.8-40.5,51.2-42C2612.7,1150.5,2636.5,1163.4,2648.1,1170.2z"/>
	<path class="st0" d="M2671.9,1170.2c-4.1,2.4-6.6,6.8-6.6,11.6v41.1c0,7.7,5.3,14.1,12.5,15.8c4.1,1,8.3,2,12.3,3.3l43.9,14.7
		c8.5,0,16.4-4,21.5-10.7c5.4-7.2,14.8-15.7,29.5-17.9c3.1-0.5,4.6-4,2.8-6.5c-5-6.8-12.5-18.2-14.8-27.8
		c-3.6-14.9-31.8-40.5-51.2-42C2707.3,1150.5,2683.4,1163.4,2671.9,1170.2z"/>
	<g>
		<g>
			<path class="st0" d="M2629.2,1085.5l11,14.4c2.1,2.8,3.7,5.8,4.8,9.1l13.7,41.9c0.2,0.5,0.2,1,0.2,1.5l0,0c0,4.7-6,6.6-8.7,2.8
				c-10.9-15.4-27.8-43.9-24.6-68.8C2625.9,1084.7,2628.1,1084.1,2629.2,1085.5z"/>
		</g>
		<g>
			<path class="st0" d="M2563.8,1128.8l44.8-22c4.7-2.3,10.4,0.3,11.7,5.5c1.6,6.8,4.5,16,9.4,25.4c2.5,4.8-1.6,10.3-6.9,9.4
				l-57.9-10.5C2561,1135.8,2560.3,1130.5,2563.8,1128.8z"/>
		</g>
		<g>
			<g>
				<path class="st0" d="M2584.5,1150.7c0,0-32.8-16.4-55.8-6.1s-50.2,27.7-36.4,107.1c0,0,36.4-27.2,41.5-47.1
					C2538.9,1184.5,2560.9,1152.2,2584.5,1150.7z"/>
			</g>
		</g>
		<g>
			<g>
				<path class="st0" d="M2531.5,1246.7v25.4c0,0-11.5,62.1-42.6,85.7c-4.5,3.4-11.1,0.6-11.7-5l-3.6-30.9
					c-0.8-7.1,0.1-14.3,2.7-20.9l17.5-44.2c0,0,19.5-12.8,27.7-20l0,0C2527,1236.7,2531.5,1241.2,2531.5,1246.7z"/>
			</g>
		</g>
		<g>
			<path class="st0" d="M2477.2,1276.3c1.4-1.1,3.4,0.5,2.5,2.1c-4.1,7.4-10.3,20.2-11.3,31.6c-1,11.2-0.7,27.1-0.4,36.9
				c0.1,2.1-2.7,2.8-3.7,1l-4.8-9.1c-2-3.9-3-8.2-2.8-12.6C2457.3,1314,2460.5,1289.6,2477.2,1276.3z"/>
		</g>
		<g>
			<path class="st0" d="M2533.4,1294.8v7.7c0,3.3-0.6,6.6-1.8,9.8c-2.5,6.7-7.8,18.3-16.5,26.1c-0.9,0.8-2.3-0.2-1.8-1.3
				c4.1-8.4,12.9-27.1,17.7-42.6C2531.4,1293.1,2533.4,1293.4,2533.4,1294.8z"/>
		</g>
		<g>
			<path class="st2" d="M2654.7,1302.8v34c0,2.6-2.1,4.6-4.6,4.6h-30.5c-3,0-5.8-1.6-7.3-4.2l-3.5-6.1c-3.3-5.7-2-13,3.2-17.2
				c7.9-6.4,21-14.4,37.7-15.8C2652.3,1297.9,2654.7,1300.1,2654.7,1302.8z"/>
		</g>
		<g>
			<g>
				<path class="st2" d="M2649.1,1409h-21.7c-5.5,0-9.9-4.5-9.9-9.9v-39.5c0-5.5,4.5-9.9,9.9-9.9h21.7c3.1,0,5.6,2.5,5.6,5.6v48.2
					C2654.7,1406.5,2652.2,1409,2649.1,1409z"/>
			</g>
		</g>
		<g>
			<path class="st2" d="M2573.3,1323.3l14,15.9c5.9,6.7,9.2,15.3,9.2,24.3v19.4c0,1.5-1.8,2.3-2.9,1.4l-12.2-10.5
				c-7.1-6.1-11.1-14.9-11.1-24.2v-25C2570.2,1322.9,2572.2,1322.1,2573.3,1323.3z"/>
		</g>
		<g>
			<path class="st2" d="M2575.6,1378.3l13.9,12.9c4.5,4.1,7,10,7,16.1v14.5c0,2.9-3.6,4.3-5.6,2.2l-14.3-15.2
				c-4.1-4.4-6.4-10.2-6.4-16.3v-11.9C2570.2,1377.9,2573.5,1376.4,2575.6,1378.3z"/>
		</g>
		<g>
			<g>
				<path class="st0" d="M2690.8,1085.5l-11,14.4c-2.1,2.8-3.7,5.8-4.8,9.1l-13.7,41.9c-0.2,0.5-0.2,1-0.2,1.5l0,0
					c0,4.7,6,6.6,8.7,2.8c10.9-15.4,27.8-43.9,24.6-68.8C2694,1084.7,2691.8,1084.1,2690.8,1085.5z"/>
			</g>
		</g>
		<g>
			<g>
				<path class="st0" d="M2756.1,1128.8l-44.8-22c-4.7-2.3-10.4,0.3-11.7,5.5c-1.6,6.8-4.5,16-9.4,25.4c-2.5,4.8,1.6,10.3,6.9,9.4
					l57.9-10.5C2758.9,1135.8,2759.7,1130.5,2756.1,1128.8z"/>
			</g>
		</g>
		<g>
			<g>
				<g>
					<path class="st0" d="M2735.5,1150.7c0,0,32.8-16.4,55.8-6.1s50.2,27.7,36.4,107.1c0,0-36.4-27.2-41.5-47.1
						C2781.1,1184.5,2759,1152.2,2735.5,1150.7z"/>
				</g>
			</g>
		</g>
		<g>
			<g>
				<g>
					<path class="st0" d="M2788.5,1246.7v25.4c0,0,11.5,62.1,42.6,85.7c4.5,3.4,11.1,0.6,11.7-5l3.6-30.9c0.8-7.1-0.1-14.3-2.7-20.9
						l-17.5-44.2c0,0-19.5-12.8-27.7-20l0,0C2793,1236.7,2788.5,1241.2,2788.5,1246.7z"/>
				</g>
			</g>
		</g>
		<g>
			<g>
				<path class="st0" d="M2842.7,1276.3c-1.4-1.1-3.4,0.5-2.5,2.1c4.1,7.4,10.3,20.2,11.3,31.6c1,11.2,0.7,27.1,0.4,36.9
					c-0.1,2.1,2.7,2.8,3.7,1l4.8-9.1c2-3.9,3-8.2,2.8-12.6C2862.7,1314,2859.5,1289.6,2842.7,1276.3z"/>
			</g>
		</g>
		<g>
			<g>
				<path class="st0" d="M2786.6,1294.8v7.7c0,3.3,0.6,6.6,1.8,9.8c2.5,6.7,7.8,18.3,16.5,26.1c0.9,0.8,2.3-0.2,1.8-1.3
					c-4.1-8.4-12.9-27.1-17.7-42.6C2788.5,1293.1,2786.6,1293.4,2786.6,1294.8z"/>
			</g>
		</g>
		<g>
			<g>
				<path class="st2" d="M2665.3,1302.8v34c0,2.6,2.1,4.6,4.6,4.6h30.5c3,0,5.8-1.6,7.3-4.2l3.5-6.1c3.3-5.7,2-13-3.2-17.2
					c-7.9-6.4-21-14.4-37.7-15.8C2667.6,1297.9,2665.3,1300.1,2665.3,1302.8z"/>
			</g>
		</g>
		<g>
			<g>
				<path class="st2" d="M2670.9,1409h21.7c5.5,0,9.9-4.5,9.9-9.9v-39.5c0-5.5-4.5-9.9-9.9-9.9h-21.7c-3.1,0-5.6,2.5-5.6,5.6v48.2
					C2665.3,1406.5,2667.8,1409,2670.9,1409z"/>
			</g>
		</g>
		<g>
			<g>
				<path class="st2" d="M2746.6,1323.3l-14,15.9c-5.9,6.7-9.2,15.3-9.2,24.3v19.4c0,1.5,1.8,2.3,2.9,1.4l12.2-10.5
					c7.1-6.1,11.1-14.9,11.1-24.2v-25C2749.8,1322.9,2747.7,1322.1,2746.6,1323.3z"/>
			</g>
		</g>
		<g>
			<g>
				<path class="st2" d="M2744.4,1378.3l-13.9,12.9c-4.5,4.1-7,10-7,16.1v14.5c0,2.9,3.6,4.3,5.6,2.2l14.3-15.2
					c4.1-4.4,6.4-10.2,6.4-16.3v-11.9C2749.8,1377.9,2746.4,1376.4,2744.4,1378.3z"/>
			</g>
		</g>
		<g>
			<path class="st2" d="M2654.5,1252.5v31.8c0,2.4-1.8,4.5-4.3,5.1l-18.4,4.3c-9.5,2.2-24.6,9.3-24.6,9.3
				c-5.3,5.4-31.8-38.1-11-38.1l52.6-17.6C2651.9,1247.3,2654.5,1249.6,2654.5,1252.5z"/>
		</g>
		<g>
			<g>
				<path class="st2" d="M2665.1,1252.5v31.8c0,2.4,1.8,4.5,4.3,5.1l18.4,4.3c9.5,2.2,24.6,9.3,24.6,9.3c5.3,5.4,32.8-38.1,11-38.1
					l-52.6-17.6C2667.6,1247.3,2665.1,1249.6,2665.1,1252.5z"/>
			</g>
		</g>
	</g>
</g>
<g>
	<path class="st1" d="M157.4,138.1c19.2-0.5,62.7,3.3,88.5,43.8v82.2c0,0-23.1,45.6-67.4,27.1c-37.1-15.6-33.6-112.1-31.4-143
		C147.5,142.6,152,138.3,157.4,138.1z"/>
	<g>
		<path class="st0" d="M212.7,304.6c6.3-2.5,14.3-6,20.4-9.6c2.8-1.6,6.2,0.6,5.8,3.8l-11,121.5c-0.3,3.7-5.7,3.7-6.1,0.1
			c-3.4-31-9.2-77.1-16.1-101.9C204.2,312.8,207.2,306.8,212.7,304.6z"/>
	</g>
	<g>
		<path class="st0" d="M194.4,313.2l23.7,130.3c2.1,11.5,0.9,23.3-3.5,34.2l-20.2,49.7c-2.2,5.4-10.2,4.5-11-1.3
			c-6.3-40.7-18.2-135.2-8.4-212.4c0.8-6.2,7.1-10.1,13-8h0C191.3,306.9,193.7,309.8,194.4,313.2z"/>
	</g>
	<g>
		<path class="st0" d="M166.9,299.5c1.2,1.4,1.8,3.3,1.6,5.1c-1.6,16.4-9.3,98.6-8.6,139.8c0.5,28.9-9.9,57.9-17.7,75.3
			c-2.4,5.4-10.4,4.4-11.4-1.4c-4.6-26.5-12.4-75.1-11.8-94.3c0.7-21.6,25.8-94,35.9-122.4C156.8,296.5,163.5,295.3,166.9,299.5
			L166.9,299.5z"/>
	</g>
	<g>
		<path class="st0" d="M130.1,229.1c1.1-2.5,4.7-2.3,5.5,0.2c4.9,15.2,15.8,50.2,15.2,59.4c-0.7,9.7-24.2,67.8-33.4,97.1
			c-0.9,2.9-5.1,2.5-5.4-0.6C109,354.9,105.9,285.3,130.1,229.1z"/>
	</g>
	<path class="st1" d="M342.7,138.1c-19.2-0.5-62.7,3.3-88.5,43.8v82.2c0,0,23.1,45.6,67.4,27.1c37.1-15.6,33.6-112.1,31.4-143
		C352.7,142.6,348.2,138.3,342.7,138.1z"/>
	<g>
		<g>
			<path class="st0" d="M287.5,304.6c-6.3-2.5-14.3-6-20.4-9.6c-2.8-1.6-6.2,0.6-5.8,3.8l11,121.5c0.3,3.7,5.7,3.7,6.1,0.1
				c3.4-31,9.2-77.1,16.1-101.9C296,312.8,293,306.8,287.5,304.6z"/>
		</g>
	</g>
	<g>
		<g>
			<path class="st0" d="M305.8,313.2l-23.7,130.3c-2.1,11.5-0.9,23.3,3.5,34.2l20.2,49.7c2.2,5.4,10.2,4.5,11-1.3
				c6.3-40.7,18.2-135.2,8.4-212.4c-0.8-6.2-7.1-10.1-13-8h0C308.9,306.9,306.4,309.8,305.8,313.2z"/>
		</g>
	</g>
	<g>
		<g>
			<path class="st0" d="M333.2,299.5c-1.2,1.4-1.8,3.3-1.6,5.1c1.6,16.4,9.3,98.6,8.6,139.8c-0.5,28.9,9.9,57.9,17.7,75.3
				c2.4,5.4,10.4,4.4,11.4-1.4c4.6-26.5,12.4-75.1,11.8-94.3c-0.7-21.6-25.8-94-35.9-122.4C343.4,296.5,336.7,295.3,333.2,299.5
				L333.2,299.5z"/>
		</g>
	</g>
	<g>
		<g>
			<path class="st0" d="M370,229.1c-1.1-2.5-4.7-2.3-5.5,0.2c-4.9,15.2-15.8,50.2-15.2,59.4c0.7,9.7,24.2,67.8,33.4,97.1
				c0.9,2.9,5.1,2.5,5.4-0.6C391.1,354.9,394.3,285.3,370,229.1z"/>
		</g>
	</g>
	<g>
		<g>
			<path class="st0" d="M172.7,119.8c0.4,6.1,5.3,10.9,11.2,10.9c13.5,0,26.6,4.9,37,13.8l17.2,14.7c3.1,2.6,7.8,0.4,7.8-3.8v-50.7
				h-74.1L172.7,119.8z"/>
		</g>
		<g>
			<path class="st0" d="M143.1,112.2l1.8,12.7c0.5,3.5,3.6,6,7.1,5.7l10.4-0.8c3.3-0.3,6.4-2.9,6.1-6.2c-0.6-6.3-1.3-12.7-2.1-18.9
				h-24.1C142.5,107.2,142.7,109.7,143.1,112.2z"/>
		</g>
		<g>
			<path class="st0" d="M254.2,155.4c0,4.1,4.7,6.4,7.8,3.8l17.2-14.7c10.4-8.9,23.5-13.8,37-13.8l0,0c5.9,0,10.8-4.8,11.2-10.9
				l0.9-15.2h-74.1V155.4z"/>
		</g>
		<g>
			<path class="st0" d="M331.7,123.6c-0.3,3.3,2.8,5.9,6.1,6.2l10.4,0.8c3.5,0.3,6.6-2.2,7.1-5.7l1.8-12.7c0.4-2.5,0.6-5,0.7-7.6
				h-24.1C333,110.9,332.2,117.3,331.7,123.6z"/>
		</g>
	</g>
</g>
<g>
	<g>
		<path class="st0" d="M681.4,98.2h-21.8c-6.1,0-11,4.9-11,11v19.5c0,29.8,7.2,59.2,20.9,85.7l7.8,15c2.3,4.4,8.9,2.8,8.9-2.2V102.9
			C686.1,100.3,684,98.2,681.4,98.2z"/>
	</g>
	<g>
		<path class="st0" d="M608.7,103l1.7,1.8c16.5,17.6,26,40.6,26.7,64.7l0.3,9.4c0.1,4.1-5,6.1-7.6,3l-28.9-33.6
			c-7.4-8.6-11-19.7-10.1-31l0.7-8.2C592.1,100.3,602.7,96.6,608.7,103z"/>
	</g>
	<g>
		<path class="st0" d="M644.2,231.1l28.1,39.9c4,5.6,5.9,12.5,5.4,19.4l-7.1,99c-0.1,1.5-2.2,1.8-2.7,0.3l-21-67.7l-8.5-88.8
			C638.1,230,642.3,228.4,644.2,231.1z"/>
	</g>
	<path class="st1" d="M559.2,292c0.8-2.8,4.9-2.1,4.6,0.8c-2.1,27.3-4.2,80.9,8.3,117.3c6.8,19.6,11.4,31,14.5,37.5
		c3.8,7.9,5.2,16.6,4.2,25.3l-1.2,10c-0.8,6.6-9.3,8.7-13.2,3.2c-10.4-14.9-24.5-44.9-25.7-98.7C549.7,337.8,554.7,308.2,559.2,292z
		"/>
	<path class="st1" d="M647.8,355.2l3.6,10.9c10,30.5,13.4,62.6,10.2,94.5l-3.2,31.8c-1.6,16-17.7,26.4-33,21.3l0,0
		c-11.8-3.9-18.9-15.8-16.9-28.1l1.1-6.6c2.1-12.3,6.9-23.9,14.5-33.8c8.2-10.6,18.6-34.8,19.7-89.6
		C643.9,353.4,647.1,353,647.8,355.2z"/>
	<g>
		<g>
			<path class="st0" d="M701.9,98.2h21.8c6.1,0,11,4.9,11,11v19.5c0,29.8-7.2,59.2-20.9,85.7l-7.8,15c-2.3,4.4-8.9,2.8-8.9-2.2
				V102.9C697.2,100.3,699.3,98.2,701.9,98.2z"/>
		</g>
	</g>
	<g>
		<g>
			<path class="st0" d="M774.6,103l-1.7,1.8c-16.5,17.6-26,40.6-26.7,64.7l-0.3,9.4c-0.1,4.1,5,6.1,7.6,3l28.9-33.6
				c7.4-8.6,11-19.7,10.1-31l-0.7-8.2C791.2,100.3,780.6,96.6,774.6,103z"/>
		</g>
	</g>
	<g>
		<g>
			<path class="st0" d="M739.1,231.1L711,271c-4,5.6-5.9,12.5-5.4,19.4l7.1,99c0.1,1.5,2.2,1.8,2.7,0.3l21-67.7l8.5-88.8
				C745.1,230,740.9,228.4,739.1,231.1z"/>
		</g>
	</g>
	<path class="st1" d="M829.3,293.5c-0.7-2.8-4.8-2.3-4.7,0.6c1,27.4,0.8,81-13.2,116.8c-7.6,19.3-12.7,30.5-16.1,36.9
		c-4.1,7.7-5.9,16.4-5.2,25.1L791,483c0.5,6.7,9,9.1,13,3.8c11-14.5,26.3-43.8,29.8-97.5C837,339.7,833.2,309.9,829.3,293.5z"/>
	<path class="st1" d="M735.5,355.2l-3.6,10.9c-10,30.5-13.4,62.6-10.2,94.5l3.2,31.8c1.6,16,17.7,26.4,33,21.3h0
		c11.8-3.9,18.9-15.8,16.9-28.1l-1.1-6.6c-2.1-12.3-6.9-23.9-14.5-33.8c-8.2-10.6-18.6-34.8-19.7-89.6
		C739.4,353.4,736.2,353,735.5,355.2z"/>
	<g>
		<path class="st0" d="M593.9,147.2l11.9,17.4c2.5,3.7,2.9,8.4,1.1,12.5c-8.6,18.8-33.3,73.8-42.6,103.5c-0.8,2.4-4.3,2.1-4.5-0.5
			c-0.7-7.7,0.2-20.5,7.2-39.1c9.2-24.3,17.5-45.8,21.3-55.8c1.5-4,2.3-8.2,2.3-12.4v-24.5C590.6,146.4,592.9,145.7,593.9,147.2z"/>
	</g>
	<g>
		<g>
			<path class="st0" d="M791.9,147.2L780,164.6c-2.5,3.7-2.9,8.4-1.1,12.5c8.6,18.8,33.3,73.8,42.6,103.5c0.8,2.4,4.3,2.1,4.5-0.5
				c0.7-7.7-0.2-20.5-7.2-39.1c-9.2-24.3-17.5-45.8-21.3-55.8c-1.5-4-2.3-8.2-2.3-12.4v-24.5C795.3,146.4,792.9,145.7,791.9,147.2z"
				/>
		</g>
	</g>
	<path class="st1" d="M762.1,427.1l-0.9-3c-15.5-50.1-17.5-103.9-5.8-155.2l13.1-57.3c1.7-7.4,11.3-8.2,14-1.1
		c10.7,27.7,27.7,75.7,29.4,105.9c3.8,68.9-8.3,71-17.1,109.4C790.7,443.4,767.4,444.4,762.1,427.1z"/>
	<path class="st1" d="M622.2,427.1l0.9-3c15.5-50.1,17.5-103.9,5.8-155.2l-13.1-57.3c-1.7-7.4-11.3-8.2-14-1.1
		c-10.7,27.7-27.7,75.7-29.4,105.9c-3.8,68.9,8.3,71,17.1,109.4C593.6,443.4,616.9,444.4,622.2,427.1z"/>
</g>
</svg>
