<?xml version="1.0" encoding="utf-8"?>
<!-- Generator: Adobe Illustrator 27.2.0, SVG Export Plug-In . SVG Version: 6.00 Build 0)  -->
<svg version="1.1" id="Capa_1" xmlns="http://www.w3.org/2000/svg" xmlns:xlink="http://www.w3.org/1999/xlink" x="0px" y="0px"
	 viewBox="0 0 960 600" style="enable-background:new 0 0 960 600;" xml:space="preserve">
<style type="text/css">
	.st0{fill:#333333;}
	.st1{fill:#BDEB00;}
	.st2{fill:#FFFFFF;}
</style>
<path class="st0" d="M461.7,170.3c6.3,3.7,10.1,10.5,10.1,17.8v63c0,11.7-8.2,21.6-19.1,24.1c-6.3,1.5-12.7,3-18.8,5.1l-67.2,22.6
	c-13,0-25.2-6.1-33-16.4c-8.3-11-22.6-24.1-45.1-27.5c-4.7-0.7-7-6.1-4.2-10c7.6-10.4,19.2-27.8,22.7-42.6
	c5.5-22.8,48.6-62,78.5-64.3C407.6,140.2,444.1,159.8,461.7,170.3z"/>
<path class="st0" d="M498.3,170.3c-6.3,3.7-10.1,10.5-10.1,17.8v63c0,11.7,8.2,21.6,19.1,24.1c6.3,1.5,12.7,3,18.8,5.1l67.2,22.6
	c13,0,25.2-6.1,33-16.4c8.3-11,22.6-24.1,45.1-27.5c4.7-0.7,7-6.1,4.2-10c-7.6-10.4-19.2-27.8-22.7-42.6
	c-5.5-22.8-48.6-62-78.5-64.3C552.4,140.2,515.9,159.8,498.3,170.3z"/>
<g>
	<path class="st0" d="M432.8,40.6l16.9,22c3.2,4.2,5.7,9,7.4,14l20.9,64.2c0.2,0.7,0.4,1.5,0.4,2.3l0,0c0,7.2-9.2,10.1-13.3,4.2
		C448.4,123.7,422.5,80,427.5,42C427.8,39.4,431.2,38.5,432.8,40.6z"/>
</g>
<g>
	<path class="st1" d="M332.7,106.9l68.6-33.8c7.3-3.6,16,0.5,17.9,8.4c2.5,10.3,7,24.6,14.4,38.9c3.8,7.3-2.4,15.8-10.5,14.4
		l-88.7-16.1C328.4,117.6,327.3,109.6,332.7,106.9z"/>
</g>
<g>
	<path class="st1" d="M364.4,140.4c0,0-50.2-25.1-85.5-9.4c-35.3,15.7-76.9,42.4-55.7,164c0,0,55.7-41.6,63.6-72.2
		C294.6,192.2,328.3,142.7,364.4,140.4z"/>
</g>
<g>
	<path class="st1" d="M283.1,287.5v38.9c0,0-17.7,95.1-65.2,131.2c-6.9,5.2-16.9,0.9-17.9-7.7l-5.5-47.4c-1.3-10.8,0.2-21.8,4.2-32
		l26.8-67.7c0,0,29.8-19.6,42.4-30.6l0,0C276.3,272.2,283.1,279,283.1,287.5z"/>
</g>
<g>
	<path class="st1" d="M200.1,332.9c2.2-1.7,5.2,0.8,3.8,3.3c-6.3,11.3-15.8,30.9-17.3,48.3c-1.5,17.2-1,41.6-0.5,56.4
		c0.1,3.2-4.1,4.3-5.6,1.5l-7.3-14c-3.1-5.9-4.6-12.6-4.3-19.3C169.6,390.6,174.4,353.2,200.1,332.9z"/>
</g>
<g>
	<path class="st1" d="M286.1,361.1v11.8c0,5.1-0.9,10.2-2.7,14.9c-3.8,10.2-12,28-25.3,39.9c-1.4,1.3-3.5-0.4-2.7-2.1
		c6.3-12.8,19.7-41.5,27.1-65.2C283.1,358.5,286.1,359,286.1,361.1z"/>
</g>
<g>
	<path class="st0" d="M471.9,373.4v52.1c0,3.9-3.2,7.1-7.1,7.1h-46.7c-4.6,0-8.8-2.4-11.1-6.4l-5.4-9.4c-5.1-8.8-3-20,4.9-26.3
		c12.2-9.8,32.2-22.1,57.7-24.1C468.3,366,471.9,369.2,471.9,373.4z"/>
</g>
<g>
	<g>
		<path class="st0" d="M463.3,536.1h-33.2c-8.4,0-15.2-6.8-15.2-15.2v-60.5c0-8.4,6.8-15.2,15.2-15.2h33.2c4.8,0,8.6,3.9,8.6,8.6
			v73.8C471.9,532.3,468,536.1,463.3,536.1z"/>
	</g>
</g>
<g>
	<path class="st0" d="M347.3,404.9l21.5,24.4c9,10.3,14,23.5,14,37.2v29.7c0,2.3-2.7,3.6-4.5,2.1l-18.7-16.1
		c-10.8-9.3-17-22.9-17-37.1v-38.3C342.5,404.1,345.6,403,347.3,404.9z"/>
</g>
<g>
	<path class="st0" d="M350.8,489.1l21.3,19.7c6.8,6.3,10.7,15.3,10.7,24.6v22.3c0,4.5-5.5,6.6-8.5,3.4l-21.9-23.2
		c-6.3-6.7-9.9-15.6-9.9-24.9v-18.2C342.5,488.4,347.6,486.1,350.8,489.1z"/>
</g>
<g>
	<g>
		<path class="st0" d="M527.2,40.6l-16.9,22c-3.2,4.2-5.7,9-7.4,14L482,140.8c-0.2,0.7-0.4,1.5-0.4,2.3l0,0c0,7.2,9.2,10.1,13.3,4.2
			C511.6,123.7,537.5,80,532.5,42C532.2,39.4,528.8,38.5,527.2,40.6z"/>
	</g>
</g>
<g>
	<g>
		<path class="st1" d="M627.3,106.9l-68.6-33.8c-7.3-3.6-16,0.5-17.9,8.4c-2.5,10.3-7,24.6-14.4,38.9c-3.8,7.3,2.4,15.8,10.5,14.4
			l88.7-16.1C631.6,117.6,632.7,109.6,627.3,106.9z"/>
	</g>
</g>
<g>
	<g>
		<path class="st1" d="M595.6,140.4c0,0,50.2-25.1,85.5-9.4c35.3,15.7,76.9,42.4,55.7,164c0,0-55.7-41.6-63.6-72.2
			C665.4,192.2,631.7,142.7,595.6,140.4z"/>
	</g>
</g>
<g>
	<g>
		<path class="st1" d="M676.9,287.5v38.9c0,0,17.7,95.1,65.2,131.2c6.9,5.2,16.9,0.9,17.9-7.7l5.5-47.4c1.3-10.8-0.2-21.8-4.2-32
			l-26.8-67.7c0,0-29.8-19.6-42.4-30.6h0C683.7,272.2,676.9,279,676.9,287.5z"/>
	</g>
</g>
<g>
	<g>
		<path class="st1" d="M759.9,332.9c-2.2-1.7-5.2,0.8-3.8,3.3c6.3,11.3,15.8,30.9,17.3,48.3c1.5,17.2,1,41.6,0.5,56.4
			c-0.1,3.2,4.1,4.3,5.6,1.5l7.3-14c3.1-5.9,4.6-12.6,4.3-19.3C790.4,390.6,785.6,353.2,759.9,332.9z"/>
	</g>
</g>
<g>
	<g>
		<path class="st1" d="M673.9,361.1v11.8c0,5.1,0.9,10.2,2.7,14.9c3.8,10.2,12,28,25.3,39.9c1.4,1.3,3.5-0.4,2.7-2.1
			c-6.3-12.8-19.7-41.5-27.1-65.2C676.9,358.5,673.9,359,673.9,361.1z"/>
	</g>
</g>
<g>
	<g>
		<path class="st0" d="M488.1,373.4v52.1c0,3.9,3.2,7.1,7.1,7.1h46.7c4.6,0,8.8-2.4,11.1-6.4l5.4-9.4c5.1-8.8,3-20-4.9-26.3
			c-12.2-9.8-32.2-22.1-57.7-24.1C491.7,366,488.1,369.2,488.1,373.4z"/>
	</g>
</g>
<g>
	<g>
		<path class="st0" d="M496.7,536.1h33.2c8.4,0,15.2-6.8,15.2-15.2v-60.5c0-8.4-6.8-15.2-15.2-15.2h-33.2c-4.8,0-8.6,3.9-8.6,8.6
			v73.8C488.1,532.3,492,536.1,496.7,536.1z"/>
	</g>
</g>
<g>
	<g>
		<path class="st0" d="M612.7,404.9l-21.5,24.4c-9,10.3-14,23.5-14,37.2v29.7c0,2.3,2.7,3.6,4.5,2.1l18.7-16.1
			c10.8-9.3,17-22.9,17-37.1v-38.3C617.5,404.1,614.4,403,612.7,404.9z"/>
	</g>
</g>
<g>
	<g>
		<path class="st0" d="M609.2,489.1L588,508.8c-6.8,6.3-10.7,15.3-10.7,24.6v22.3c0,4.5,5.5,6.6,8.5,3.4l21.9-23.2
			c6.3-6.7,9.9-15.6,9.9-24.9v-18.2C617.5,488.4,612.4,486.1,609.2,489.1z"/>
	</g>
</g>
<g>
	<path class="st0" d="M471.5,296.4v48.7c0,3.7-2.7,6.9-6.6,7.8l-28.2,6.5c-14.5,3.4-37.7,14.3-37.7,14.3
		c-8.1,8.3-48.7-58.4-16.8-58.4l80.6-27C467.7,288.3,471.5,291.9,471.5,296.4z"/>
</g>
<g>
	<g>
		<path class="st0" d="M487.8,296.4v48.7c0,3.7,2.7,6.9,6.6,7.8l28.2,6.5c14.5,3.4,37.7,14.3,37.7,14.3c8.1,8.3,50.2-58.4,16.8-58.4
			l-80.6-27C491.7,288.3,487.8,291.9,487.8,296.4z"/>
	</g>
</g>
<g>
	<path class="st0" d="M2648.1,396.3c4.1,2.4,6.6,6.8,6.6,11.6V449c0,7.7-5.3,14.1-12.5,15.8c-4.1,1-8.3,2-12.3,3.3l-43.9,14.7
		c-8.5,0-16.4-4-21.5-10.7c-5.4-7.2-14.8-15.7-29.5-17.9c-3.1-0.5-4.6-4-2.8-6.5c5-6.8,12.5-18.2,14.8-27.8
		c3.6-14.9,31.8-40.5,51.2-42C2612.7,376.7,2636.5,389.5,2648.1,396.3z"/>
	<path class="st0" d="M2671.9,396.3c-4.1,2.4-6.6,6.8-6.6,11.6V449c0,7.7,5.3,14.1,12.5,15.8c4.1,1,8.3,2,12.3,3.3l43.9,14.7
		c8.5,0,16.4-4,21.5-10.7c5.4-7.2,14.8-15.7,29.5-17.9c3.1-0.5,4.6-4,2.8-6.5c-5-6.8-12.5-18.2-14.8-27.8
		c-3.6-14.9-31.8-40.5-51.2-42C2707.3,376.7,2683.4,389.5,2671.9,396.3z"/>
	<g>
		<g>
			<path class="st0" d="M2629.2,311.6l11,14.4c2.1,2.8,3.7,5.8,4.8,9.1l13.7,41.9c0.2,0.5,0.2,1,0.2,1.5l0,0c0,4.7-6,6.6-8.7,2.8
				c-10.9-15.4-27.8-43.9-24.6-68.8C2625.9,310.8,2628.1,310.3,2629.2,311.6z"/>
		</g>
		<g>
			<path class="st1" d="M2563.8,354.9l44.8-22c4.7-2.3,10.4,0.3,11.7,5.5c1.6,6.8,4.5,16,9.4,25.4c2.5,4.8-1.6,10.3-6.9,9.4
				l-57.9-10.5C2561,361.9,2560.3,356.7,2563.8,354.9z"/>
		</g>
		<g>
			<g>
				<path class="st1" d="M2584.5,376.8c0,0-32.8-16.4-55.8-6.1s-50.2,27.7-36.4,107.1c0,0,36.4-27.2,41.5-47.1
					C2538.9,410.6,2560.9,378.3,2584.5,376.8z"/>
			</g>
		</g>
		<g>
			<g>
				<path class="st1" d="M2531.5,472.8v25.4c0,0-11.5,62.1-42.6,85.7c-4.5,3.4-11.1,0.6-11.7-5l-3.6-30.9
					c-0.8-7.1,0.1-14.3,2.7-20.9l17.5-44.2c0,0,19.5-12.8,27.7-20l0,0C2527,462.8,2531.5,467.3,2531.5,472.8z"/>
			</g>
		</g>
		<g>
			<path class="st0" d="M2477.2,502.5c1.4-1.1,3.4,0.5,2.5,2.1c-4.1,7.4-10.3,20.2-11.3,31.6c-1,11.2-0.7,27.1-0.4,36.9
				c0.1,2.1-2.7,2.8-3.7,1l-4.8-9.1c-2-3.9-3-8.2-2.8-12.6C2457.3,540.2,2460.5,515.7,2477.2,502.5z"/>
		</g>
		<g>
			<path class="st0" d="M2533.4,520.9v7.7c0,3.3-0.6,6.6-1.8,9.8c-2.5,6.7-7.8,18.3-16.5,26.1c-0.9,0.8-2.3-0.2-1.8-1.3
				c4.1-8.4,12.9-27.1,17.7-42.6C2531.4,519.2,2533.4,519.5,2533.4,520.9z"/>
		</g>
		<g>
			<path class="st0" d="M2654.7,528.9v34c0,2.6-2.1,4.6-4.6,4.6h-30.5c-3,0-5.8-1.6-7.3-4.2l-3.5-6.1c-3.3-5.7-2-13,3.2-17.2
				c7.9-6.4,21-14.4,37.7-15.8C2652.3,524.1,2654.7,526.2,2654.7,528.9z"/>
		</g>
		<g>
			<g>
				<path class="st0" d="M2649.1,635.2h-21.7c-5.5,0-9.9-4.5-9.9-9.9v-39.5c0-5.5,4.5-9.9,9.9-9.9h21.7c3.1,0,5.6,2.5,5.6,5.6v48.2
					C2654.7,632.7,2652.2,635.2,2649.1,635.2z"/>
			</g>
		</g>
		<g>
			<path class="st0" d="M2573.3,549.5l14,15.9c5.9,6.7,9.2,15.3,9.2,24.3v19.4c0,1.5-1.8,2.3-2.9,1.4l-12.2-10.5
				c-7.1-6.1-11.1-14.9-11.1-24.2v-25C2570.2,549,2572.2,548.2,2573.3,549.5z"/>
		</g>
		<g>
			<path class="st0" d="M2575.6,604.5l13.9,12.9c4.5,4.1,7,10,7,16.1v14.5c0,2.9-3.6,4.3-5.6,2.2l-14.3-15.2
				c-4.1-4.4-6.4-10.2-6.4-16.3v-11.9C2570.2,604,2573.5,602.5,2575.6,604.5z"/>
		</g>
		<g>
			<g>
				<path class="st0" d="M2690.8,311.6l-11,14.4c-2.1,2.8-3.7,5.8-4.8,9.1l-13.7,41.9c-0.2,0.5-0.2,1-0.2,1.5l0,0
					c0,4.7,6,6.6,8.7,2.8c10.9-15.4,27.8-43.9,24.6-68.8C2694,310.8,2691.8,310.3,2690.8,311.6z"/>
			</g>
		</g>
		<g>
			<g>
				<path class="st1" d="M2756.1,354.9l-44.8-22c-4.7-2.3-10.4,0.3-11.7,5.5c-1.6,6.8-4.5,16-9.4,25.4c-2.5,4.8,1.6,10.3,6.9,9.4
					l57.9-10.5C2758.9,361.9,2759.7,356.7,2756.1,354.9z"/>
			</g>
		</g>
		<g>
			<g>
				<g>
					<path class="st1" d="M2735.5,376.8c0,0,32.8-16.4,55.8-6.1s50.2,27.7,36.4,107.1c0,0-36.4-27.2-41.5-47.1
						C2781.1,410.6,2759,378.3,2735.5,376.8z"/>
				</g>
			</g>
		</g>
		<g>
			<g>
				<g>
					<path class="st1" d="M2788.5,472.8v25.4c0,0,11.5,62.1,42.6,85.7c4.5,3.4,11.1,0.6,11.7-5l3.6-30.9c0.8-7.1-0.1-14.3-2.7-20.9
						l-17.5-44.2c0,0-19.5-12.8-27.7-20l0,0C2793,462.8,2788.5,467.3,2788.5,472.8z"/>
				</g>
			</g>
		</g>
		<g>
			<g>
				<path class="st0" d="M2842.7,502.5c-1.4-1.1-3.4,0.5-2.5,2.1c4.1,7.4,10.3,20.2,11.3,31.6c1,11.2,0.7,27.1,0.4,36.9
					c-0.1,2.1,2.7,2.8,3.7,1l4.8-9.1c2-3.9,3-8.2,2.8-12.6C2862.7,540.2,2859.5,515.7,2842.7,502.5z"/>
			</g>
		</g>
		<g>
			<g>
				<path class="st0" d="M2786.6,520.9v7.7c0,3.3,0.6,6.6,1.8,9.8c2.5,6.7,7.8,18.3,16.5,26.1c0.9,0.8,2.3-0.2,1.8-1.3
					c-4.1-8.4-12.9-27.1-17.7-42.6C2788.5,519.2,2786.6,519.5,2786.6,520.9z"/>
			</g>
		</g>
		<g>
			<g>
				<path class="st0" d="M2665.3,528.9v34c0,2.6,2.1,4.6,4.6,4.6h30.5c3,0,5.8-1.6,7.3-4.2l3.5-6.1c3.3-5.7,2-13-3.2-17.2
					c-7.9-6.4-21-14.4-37.7-15.8C2667.6,524.1,2665.3,526.2,2665.3,528.9z"/>
			</g>
		</g>
		<g>
			<g>
				<path class="st0" d="M2670.9,635.2h21.7c5.5,0,9.9-4.5,9.9-9.9v-39.5c0-5.5-4.5-9.9-9.9-9.9h-21.7c-3.1,0-5.6,2.5-5.6,5.6v48.2
					C2665.3,632.7,2667.8,635.2,2670.9,635.2z"/>
			</g>
		</g>
		<g>
			<g>
				<path class="st0" d="M2746.6,549.5l-14,15.9c-5.9,6.7-9.2,15.3-9.2,24.3v19.4c0,1.5,1.8,2.3,2.9,1.4l12.2-10.5
					c7.1-6.1,11.1-14.9,11.1-24.2v-25C2749.8,549,2747.7,548.2,2746.6,549.5z"/>
			</g>
		</g>
		<g>
			<g>
				<path class="st0" d="M2744.4,604.5l-13.9,12.9c-4.5,4.1-7,10-7,16.1v14.5c0,2.9,3.6,4.3,5.6,2.2l14.3-15.2
					c4.1-4.4,6.4-10.2,6.4-16.3v-11.9C2749.8,604,2746.4,602.5,2744.4,604.5z"/>
			</g>
		</g>
		<g>
			<path class="st0" d="M2654.5,478.6v31.8c0,2.4-1.8,4.5-4.3,5.1l-18.4,4.3c-9.5,2.2-24.6,9.3-24.6,9.3c-5.3,5.4-31.8-38.1-11-38.1
				l52.6-17.6C2651.9,473.4,2654.5,475.7,2654.5,478.6z"/>
		</g>
		<g>
			<g>
				<path class="st0" d="M2665.1,478.6v31.8c0,2.4,1.8,4.5,4.3,5.1l18.4,4.3c9.5,2.2,24.6,9.3,24.6,9.3c5.3,5.4,32.8-38.1,11-38.1
					l-52.6-17.6C2667.6,473.4,2665.1,475.7,2665.1,478.6z"/>
			</g>
		</g>
	</g>
</g>
<g>
	<path class="st0" d="M2648.1,1170.2c4.1,2.4,6.6,6.8,6.6,11.6v41.1c0,7.7-5.3,14.1-12.5,15.8c-4.1,1-8.3,2-12.3,3.3l-43.9,14.7
		c-8.5,0-16.4-4-21.5-10.7c-5.4-7.2-14.8-15.7-29.5-17.9c-3.1-0.5-4.6-4-2.8-6.5c5-6.8,12.5-18.2,14.8-27.8
		c3.6-14.9,31.8-40.5,51.2-42C2612.7,1150.5,2636.5,1163.4,2648.1,1170.2z"/>
	<path class="st0" d="M2671.9,1170.2c-4.1,2.4-6.6,6.8-6.6,11.6v41.1c0,7.7,5.3,14.1,12.5,15.8c4.1,1,8.3,2,12.3,3.3l43.9,14.7
		c8.5,0,16.4-4,21.5-10.7c5.4-7.2,14.8-15.7,29.5-17.9c3.1-0.5,4.6-4,2.8-6.5c-5-6.8-12.5-18.2-14.8-27.8
		c-3.6-14.9-31.8-40.5-51.2-42C2707.3,1150.5,2683.4,1163.4,2671.9,1170.2z"/>
	<g>
		<g>
			<path class="st0" d="M2629.2,1085.5l11,14.4c2.1,2.8,3.7,5.8,4.8,9.1l13.7,41.9c0.2,0.5,0.2,1,0.2,1.5l0,0c0,4.7-6,6.6-8.7,2.8
				c-10.9-15.4-27.8-43.9-24.6-68.8C2625.9,1084.7,2628.1,1084.1,2629.2,1085.5z"/>
		</g>
		<g>
			<path class="st0" d="M2563.8,1128.8l44.8-22c4.7-2.3,10.4,0.3,11.7,5.5c1.6,6.8,4.5,16,9.4,25.4c2.5,4.8-1.6,10.3-6.9,9.4
				l-57.9-10.5C2561,1135.8,2560.3,1130.5,2563.8,1128.8z"/>
		</g>
		<g>
			<g>
				<path class="st0" d="M2584.5,1150.7c0,0-32.8-16.4-55.8-6.1s-50.2,27.7-36.4,107.1c0,0,36.4-27.2,41.5-47.1
					C2538.9,1184.5,2560.9,1152.2,2584.5,1150.7z"/>
			</g>
		</g>
		<g>
			<g>
				<path class="st0" d="M2531.5,1246.7v25.4c0,0-11.5,62.1-42.6,85.7c-4.5,3.4-11.1,0.6-11.7-5l-3.6-30.9
					c-0.8-7.1,0.1-14.3,2.7-20.9l17.5-44.2c0,0,19.5-12.8,27.7-20l0,0C2527,1236.7,2531.5,1241.2,2531.5,1246.7z"/>
			</g>
		</g>
		<g>
			<path class="st0" d="M2477.2,1276.3c1.4-1.1,3.4,0.5,2.5,2.1c-4.1,7.4-10.3,20.2-11.3,31.6c-1,11.2-0.7,27.1-0.4,36.9
				c0.1,2.1-2.7,2.8-3.7,1l-4.8-9.1c-2-3.9-3-8.2-2.8-12.6C2457.3,1314,2460.5,1289.6,2477.2,1276.3z"/>
		</g>
		<g>
			<path class="st0" d="M2533.4,1294.8v7.7c0,3.3-0.6,6.6-1.8,9.8c-2.5,6.7-7.8,18.3-16.5,26.1c-0.9,0.8-2.3-0.2-1.8-1.3
				c4.1-8.4,12.9-27.1,17.7-42.6C2531.4,1293.1,2533.4,1293.4,2533.4,1294.8z"/>
		</g>
		<g>
			<path class="st2" d="M2654.7,1302.8v34c0,2.6-2.1,4.6-4.6,4.6h-30.5c-3,0-5.8-1.6-7.3-4.2l-3.5-6.1c-3.3-5.7-2-13,3.2-17.2
				c7.9-6.4,21-14.4,37.7-15.8C2652.3,1297.9,2654.7,1300.1,2654.7,1302.8z"/>
		</g>
		<g>
			<g>
				<path class="st2" d="M2649.1,1409h-21.7c-5.5,0-9.9-4.5-9.9-9.9v-39.5c0-5.5,4.5-9.9,9.9-9.9h21.7c3.1,0,5.6,2.5,5.6,5.6v48.2
					C2654.7,1406.5,2652.2,1409,2649.1,1409z"/>
			</g>
		</g>
		<g>
			<path class="st2" d="M2573.3,1323.3l14,15.9c5.9,6.7,9.2,15.3,9.2,24.3v19.4c0,1.5-1.8,2.3-2.9,1.4l-12.2-10.5
				c-7.1-6.1-11.1-14.9-11.1-24.2v-25C2570.2,1322.9,2572.2,1322.1,2573.3,1323.3z"/>
		</g>
		<g>
			<path class="st2" d="M2575.6,1378.3l13.9,12.9c4.5,4.1,7,10,7,16.1v14.5c0,2.9-3.6,4.3-5.6,2.2l-14.3-15.2
				c-4.1-4.4-6.4-10.2-6.4-16.3v-11.9C2570.2,1377.9,2573.5,1376.4,2575.6,1378.3z"/>
		</g>
		<g>
			<g>
				<path class="st0" d="M2690.8,1085.5l-11,14.4c-2.1,2.8-3.7,5.8-4.8,9.1l-13.7,41.9c-0.2,0.5-0.2,1-0.2,1.5l0,0
					c0,4.7,6,6.6,8.7,2.8c10.9-15.4,27.8-43.9,24.6-68.8C2694,1084.7,2691.8,1084.1,2690.8,1085.5z"/>
			</g>
		</g>
		<g>
			<g>
				<path class="st0" d="M2756.1,1128.8l-44.8-22c-4.7-2.3-10.4,0.3-11.7,5.5c-1.6,6.8-4.5,16-9.4,25.4c-2.5,4.8,1.6,10.3,6.9,9.4
					l57.9-10.5C2758.9,1135.8,2759.7,1130.5,2756.1,1128.8z"/>
			</g>
		</g>
		<g>
			<g>
				<g>
					<path class="st0" d="M2735.5,1150.7c0,0,32.8-16.4,55.8-6.1s50.2,27.7,36.4,107.1c0,0-36.4-27.2-41.5-47.1
						C2781.1,1184.5,2759,1152.2,2735.5,1150.7z"/>
				</g>
			</g>
		</g>
		<g>
			<g>
				<g>
					<path class="st0" d="M2788.5,1246.7v25.4c0,0,11.5,62.1,42.6,85.7c4.5,3.4,11.1,0.6,11.7-5l3.6-30.9c0.8-7.1-0.1-14.3-2.7-20.9
						l-17.5-44.2c0,0-19.5-12.8-27.7-20l0,0C2793,1236.7,2788.5,1241.2,2788.5,1246.7z"/>
				</g>
			</g>
		</g>
		<g>
			<g>
				<path class="st0" d="M2842.7,1276.3c-1.4-1.1-3.4,0.5-2.5,2.1c4.1,7.4,10.3,20.2,11.3,31.6c1,11.2,0.7,27.1,0.4,36.9
					c-0.1,2.1,2.7,2.8,3.7,1l4.8-9.1c2-3.9,3-8.2,2.8-12.6C2862.7,1314,2859.5,1289.6,2842.7,1276.3z"/>
			</g>
		</g>
		<g>
			<g>
				<path class="st0" d="M2786.6,1294.8v7.7c0,3.3,0.6,6.6,1.8,9.8c2.5,6.7,7.8,18.3,16.5,26.1c0.9,0.8,2.3-0.2,1.8-1.3
					c-4.1-8.4-12.9-27.1-17.7-42.6C2788.5,1293.1,2786.6,1293.4,2786.6,1294.8z"/>
			</g>
		</g>
		<g>
			<g>
				<path class="st2" d="M2665.3,1302.8v34c0,2.6,2.1,4.6,4.6,4.6h30.5c3,0,5.8-1.6,7.3-4.2l3.5-6.1c3.3-5.7,2-13-3.2-17.2
					c-7.9-6.4-21-14.4-37.7-15.8C2667.6,1297.9,2665.3,1300.1,2665.3,1302.8z"/>
			</g>
		</g>
		<g>
			<g>
				<path class="st2" d="M2670.9,1409h21.7c5.5,0,9.9-4.5,9.9-9.9v-39.5c0-5.5-4.5-9.9-9.9-9.9h-21.7c-3.1,0-5.6,2.5-5.6,5.6v48.2
					C2665.3,1406.5,2667.8,1409,2670.9,1409z"/>
			</g>
		</g>
		<g>
			<g>
				<path class="st2" d="M2746.6,1323.3l-14,15.9c-5.9,6.7-9.2,15.3-9.2,24.3v19.4c0,1.5,1.8,2.3,2.9,1.4l12.2-10.5
					c7.1-6.1,11.1-14.9,11.1-24.2v-25C2749.8,1322.9,2747.7,1322.1,2746.6,1323.3z"/>
			</g>
		</g>
		<g>
			<g>
				<path class="st2" d="M2744.4,1378.3l-13.9,12.9c-4.5,4.1-7,10-7,16.1v14.5c0,2.9,3.6,4.3,5.6,2.2l14.3-15.2
					c4.1-4.4,6.4-10.2,6.4-16.3v-11.9C2749.8,1377.9,2746.4,1376.4,2744.4,1378.3z"/>
			</g>
		</g>
		<g>
			<path class="st2" d="M2654.5,1252.5v31.8c0,2.4-1.8,4.5-4.3,5.1l-18.4,4.3c-9.5,2.2-24.6,9.3-24.6,9.3
				c-5.3,5.4-31.8-38.1-11-38.1l52.6-17.6C2651.9,1247.3,2654.5,1249.6,2654.5,1252.5z"/>
		</g>
		<g>
			<g>
				<path class="st2" d="M2665.1,1252.5v31.8c0,2.4,1.8,4.5,4.3,5.1l18.4,4.3c9.5,2.2,24.6,9.3,24.6,9.3c5.3,5.4,32.8-38.1,11-38.1
					l-52.6-17.6C2667.6,1247.3,2665.1,1249.6,2665.1,1252.5z"/>
			</g>
		</g>
	</g>
</g>
<g>
	<path class="st1" d="M1263.4,1061.4c14.7-0.4,48,2.5,67.8,33.6v63c0,0-17.7,35-51.7,20.7c-28.5-11.9-25.7-85.9-24.1-109.6
		C1255.7,1064.8,1259.1,1061.5,1263.4,1061.4z"/>
	<g>
		<path class="st0" d="M1305.7,1188.9c4.8-1.9,10.9-4.6,15.6-7.3c2.1-1.2,4.8,0.5,4.5,2.9l-8.4,93.1c-0.3,2.8-4.3,2.8-4.6,0
			c-2.6-23.8-7.1-59.1-12.3-78.1C1299.2,1195.2,1301.5,1190.6,1305.7,1188.9z"/>
	</g>
	<g>
		<path class="st0" d="M1291.7,1195.5l18.2,99.9c1.6,8.8,0.7,17.9-2.7,26.2l-15.5,38.1c-1.7,4.2-7.8,3.4-8.5-1
			c-4.8-31.2-14-103.6-6.4-162.8c0.6-4.7,5.5-7.7,10-6.1h0C1289.3,1190.7,1291.2,1192.9,1291.7,1195.5z"/>
	</g>
	<g>
		<path class="st0" d="M1270.6,1185c0.9,1.1,1.3,2.5,1.2,3.9c-1.2,12.6-7.1,75.6-6.6,107.1c0.4,22.2-7.6,44.3-13.5,57.7
			c-1.9,4.2-8,3.4-8.7-1.1c-3.5-20.3-9.5-57.5-9.1-72.3c0.5-16.6,19.8-72.1,27.5-93.8C1262.9,1182.7,1268,1181.8,1270.6,1185
			L1270.6,1185z"/>
	</g>
	<g>
		<path class="st0" d="M1242.4,1131c0.8-1.9,3.6-1.8,4.2,0.2c3.8,11.7,12.1,38.5,11.6,45.5c-0.5,7.4-18.6,52-25.6,74.4
			c-0.7,2.2-3.9,1.9-4.2-0.4C1226.3,1227.5,1223.9,1174.1,1242.4,1131z"/>
	</g>
	<path class="st1" d="M1405.3,1061.4c-14.7-0.4-48,2.5-67.8,33.6v63c0,0,17.7,35,51.7,20.7c28.5-11.9,25.7-85.9,24.1-109.6
		C1413,1064.8,1409.6,1061.5,1405.3,1061.4z"/>
	<g>
		<g>
			<path class="st0" d="M1363,1188.9c-4.8-1.9-10.9-4.6-15.6-7.3c-2.1-1.2-4.8,0.5-4.5,2.9l8.4,93.1c0.3,2.8,4.3,2.8,4.6,0
				c2.6-23.8,7.1-59.1,12.3-78.1C1369.5,1195.2,1367.2,1190.6,1363,1188.9z"/>
		</g>
	</g>
	<g>
		<g>
			<path class="st0" d="M1377,1195.5l-18.2,99.9c-1.6,8.8-0.7,17.9,2.7,26.2l15.5,38.1c1.7,4.2,7.8,3.4,8.5-1
				c4.8-31.2,14-103.6,6.4-162.8c-0.6-4.7-5.5-7.7-10-6.1h0C1379.4,1190.7,1377.5,1192.9,1377,1195.5z"/>
		</g>
	</g>
	<g>
		<g>
			<path class="st0" d="M1398.1,1185c-0.9,1.1-1.3,2.5-1.2,3.9c1.2,12.6,7.1,75.6,6.6,107.1c-0.4,22.2,7.6,44.3,13.5,57.7
				c1.9,4.2,8,3.4,8.7-1.1c3.5-20.3,9.5-57.5,9.1-72.3c-0.5-16.6-19.8-72.1-27.5-93.8C1405.8,1182.7,1400.7,1181.8,1398.1,1185
				L1398.1,1185z"/>
		</g>
	</g>
	<g>
		<g>
			<path class="st0" d="M1426.3,1131c-0.8-1.9-3.6-1.8-4.2,0.2c-3.8,11.7-12.1,38.5-11.6,45.5c0.5,7.4,18.6,52,25.6,74.4
				c0.7,2.2,3.9,1.9,4.2-0.4C1442.4,1227.5,1444.8,1174.1,1426.3,1131z"/>
		</g>
	</g>
	<g>
		<g>
			<path class="st0" d="M1275,1047.3c0.3,4.7,4,8.3,8.6,8.3c10.4,0,20.4,3.7,28.4,10.5l13.2,11.3c2.4,2,6,0.3,6-2.9v-38.9h-56.8
				L1275,1047.3z"/>
		</g>
		<g>
			<path class="st0" d="M1252.3,1041.5l1.4,9.7c0.4,2.7,2.8,4.6,5.5,4.4l8-0.7c2.5-0.2,4.9-2.2,4.7-4.7c-0.4-4.8-1-9.7-1.6-14.5
				h-18.5C1251.9,1037.6,1252.1,1039.6,1252.3,1041.5z"/>
		</g>
		<g>
			<path class="st0" d="M1337.5,1074.6c0,3.2,3.6,4.9,6,2.9l13.2-11.3c8-6.8,18-10.5,28.4-10.5l0,0c4.5,0,8.3-3.7,8.6-8.3l0.7-11.6
				h-56.8V1074.6z"/>
		</g>
		<g>
			<path class="st0" d="M1396.9,1050.2c-0.2,2.5,2.2,4.5,4.7,4.7l8,0.7c2.7,0.2,5.1-1.7,5.5-4.4l1.4-9.7c0.3-1.9,0.5-3.9,0.6-5.8
				h-18.5C1397.9,1040.5,1397.3,1045.4,1396.9,1050.2z"/>
		</g>
	</g>
</g>
<g>
	<g>
		<path class="st0" d="M1664.9,1030.7h-16.7c-4.7,0-8.4,3.8-8.4,8.4v14.9c0,22.9,5.5,45.4,16,65.7l5.9,11.5c1.7,3.3,6.8,2.1,6.8-1.7
			v-95.2C1668.5,1032.3,1666.8,1030.7,1664.9,1030.7z"/>
	</g>
	<g>
		<path class="st0" d="M1609.1,1034.4l1.3,1.4c12.6,13.5,19.9,31.1,20.5,49.6l0.2,7.2c0.1,3.1-3.8,4.6-5.8,2.3l-22.1-25.8
			c-5.6-6.6-8.4-15.1-7.7-23.7l0.5-6.3C1596.4,1032.4,1604.6,1029.5,1609.1,1034.4z"/>
	</g>
	<g>
		<path class="st0" d="M1636.4,1132.6l21.5,30.6c3,4.3,4.5,9.6,4.1,14.8l-5.4,75.9c-0.1,1.2-1.7,1.3-2.1,0.2l-16.1-51.9l-6.5-68.1
			C1631.7,1131.7,1635,1130.5,1636.4,1132.6z"/>
	</g>
	<path class="st1" d="M1571.3,1179.3c0.6-2.1,3.7-1.6,3.6,0.6c-1.6,20.9-3.2,62,6.4,89.9c5.2,15,8.7,23.7,11.1,28.7
		c2.9,6,4,12.8,3.2,19.4l-0.9,7.7c-0.6,5.1-7.2,6.7-10.1,2.5c-8-11.4-18.8-34.4-19.7-75.6
		C1563.9,1214.4,1567.8,1191.7,1571.3,1179.3z"/>
	<path class="st1" d="M1639.2,1227.7l2.7,8.4c7.6,23.3,10.3,48,7.8,72.4l-2.5,24.4c-1.2,12.3-13.6,20.3-25.3,16.4l0,0
		c-9-3-14.5-12.1-12.9-21.5l0.9-5.1c1.6-9.4,5.3-18.3,11.1-25.9c6.3-8.1,14.2-26.7,15.1-68.6
		C1636.1,1226.4,1638.6,1226,1639.2,1227.7z"/>
	<g>
		<g>
			<path class="st0" d="M1680.6,1030.7h16.7c4.7,0,8.4,3.8,8.4,8.4v14.9c0,22.9-5.5,45.4-16,65.7l-5.9,11.5
				c-1.7,3.3-6.8,2.1-6.8-1.7v-95.2C1677,1032.3,1678.6,1030.7,1680.6,1030.7z"/>
		</g>
	</g>
	<g>
		<g>
			<path class="st0" d="M1736.3,1034.4l-1.3,1.4c-12.6,13.5-19.9,31.1-20.5,49.6l-0.2,7.2c-0.1,3.1,3.8,4.6,5.8,2.3l22.1-25.8
				c5.6-6.6,8.4-15.1,7.7-23.7l-0.5-6.3C1749,1032.4,1740.9,1029.5,1736.3,1034.4z"/>
		</g>
	</g>
	<g>
		<g>
			<path class="st0" d="M1709.1,1132.6l-21.5,30.6c-3,4.3-4.5,9.6-4.1,14.8l5.4,75.9c0.1,1.2,1.7,1.3,2.1,0.2l16.1-51.9l6.5-68.1
				C1713.7,1131.7,1710.5,1130.5,1709.1,1132.6z"/>
		</g>
	</g>
	<path class="st1" d="M1778.2,1180.5c-0.5-2.1-3.7-1.7-3.6,0.5c0.8,21,0.6,62.1-10.1,89.5c-5.8,14.8-9.7,23.4-12.3,28.2
		c-3.1,5.9-4.5,12.6-4,19.2l0.6,7.7c0.4,5.1,6.9,7,10,2.9c8.5-11.1,20.2-33.6,22.8-74.8C1784.1,1215.8,1781.2,1193,1778.2,1180.5z"
		/>
	<path class="st1" d="M1706.3,1227.7l-2.7,8.4c-7.6,23.3-10.3,48-7.8,72.4l2.5,24.4c1.2,12.3,13.6,20.3,25.3,16.4h0
		c9-3,14.5-12.1,12.9-21.5l-0.9-5.1c-1.6-9.4-5.3-18.3-11.1-25.9c-6.3-8.1-14.2-26.7-15.1-68.6
		C1709.3,1226.4,1706.9,1226,1706.3,1227.7z"/>
	<g>
		<path class="st0" d="M1597.8,1068.3l9.2,13.3c1.9,2.8,2.3,6.5,0.8,9.6c-6.6,14.4-25.5,56.5-32.7,79.3c-0.6,1.9-3.3,1.6-3.5-0.4
			c-0.5-5.9,0.1-15.7,5.5-29.9c7.1-18.6,13.4-35.1,16.3-42.8c1.2-3,1.7-6.2,1.7-9.5v-18.8
			C1595.3,1067.7,1597.1,1067.2,1597.8,1068.3z"/>
	</g>
	<g>
		<g>
			<path class="st0" d="M1749.6,1068.3l-9.2,13.3c-1.9,2.8-2.3,6.5-0.8,9.6c6.6,14.4,25.5,56.5,32.7,79.3c0.6,1.9,3.3,1.6,3.5-0.4
				c0.5-5.9-0.1-15.7-5.5-29.9c-7.1-18.6-13.4-35.1-16.3-42.8c-1.2-3-1.7-6.2-1.7-9.5v-18.8
				C1752.1,1067.7,1750.3,1067.2,1749.6,1068.3z"/>
		</g>
	</g>
	<path class="st1" d="M1726.7,1282.8l-0.7-2.3c-11.9-38.4-13.4-79.6-4.4-119l10.1-43.9c1.3-5.7,8.6-6.3,10.7-0.9
		c8.2,21.2,21.2,58,22.5,81.2c2.9,52.8-6.4,54.4-13.1,83.8C1748.6,1295.3,1730.8,1296.1,1726.7,1282.8z"/>
	<path class="st1" d="M1619.5,1282.8l0.7-2.3c11.9-38.4,13.4-79.6,4.4-119l-10.1-43.9c-1.3-5.7-8.6-6.3-10.7-0.9
		c-8.2,21.2-21.2,58-22.5,81.2c-2.9,52.8,6.4,54.4,13.1,83.8C1597.6,1295.3,1615.4,1296.1,1619.5,1282.8z"/>
</g>
</svg>
