<?xml version="1.0" encoding="utf-8"?>
<!-- Generator: Adobe Illustrator 27.2.0, SVG Export Plug-In . SVG Version: 6.00 Build 0)  -->
<svg version="1.1" id="Capa_1" xmlns="http://www.w3.org/2000/svg" xmlns:xlink="http://www.w3.org/1999/xlink" x="0px" y="0px"
	 viewBox="0 0 960 600" style="enable-background:new 0 0 960 600;" xml:space="preserve">
<style type="text/css">
	.st0{fill:#BDEB00;}
	.st1{fill:#333333;}
</style>
<g>
	<path class="st0" d="M461.7,170.3c6.3,3.7,10.1,10.5,10.1,17.8v63c0,11.7-8.2,21.6-19.1,24.1c-6.3,1.5-12.7,3-18.8,5.1l-67.2,22.6
		c-13,0-25.2-6.1-33-16.4c-8.3-11-22.6-24.1-45.1-27.5c-4.7-0.7-7-6.1-4.2-10c7.6-10.4,19.2-27.8,22.7-42.6
		c5.5-22.8,48.6-62,78.5-64.3C407.6,140.2,444.1,159.8,461.7,170.3z"/>
	<path class="st0" d="M498.3,170.3c-6.3,3.7-10.1,10.5-10.1,17.8v63c0,11.7,8.2,21.6,19.1,24.1c6.3,1.5,12.7,3,18.8,5.1l67.2,22.6
		c13,0,25.2-6.1,33-16.4c8.3-11,22.6-24.1,45.1-27.5c4.7-0.7,7-6.1,4.2-10c-7.6-10.4-19.2-27.8-22.7-42.6
		c-5.5-22.8-48.6-62-78.5-64.3C552.4,140.2,515.9,159.8,498.3,170.3z"/>
	<g>
		<g>
			<path class="st1" d="M432.8,40.6l16.9,22c3.2,4.2,5.7,9,7.4,14l20.9,64.2c0.2,0.7,0.4,1.5,0.4,2.3l0,0c0,7.2-9.2,10.1-13.3,4.2
				C448.4,123.7,422.5,80,427.5,42C427.8,39.4,431.2,38.5,432.8,40.6z"/>
		</g>
		<g>
			<path class="st1" d="M332.7,106.9l68.6-33.8c7.3-3.6,16,0.5,17.9,8.4c2.5,10.3,7,24.6,14.4,38.9c3.8,7.3-2.4,15.8-10.5,14.4
				l-88.7-16.1C328.4,117.6,327.3,109.6,332.7,106.9z"/>
		</g>
		<g>
			<path class="st1" d="M364.4,140.4c0,0-50.2-25.1-85.5-9.4c-35.3,15.7-76.9,42.4-55.7,164c0,0,55.7-41.6,63.6-72.2
				C294.6,192.2,328.3,142.7,364.4,140.4z"/>
		</g>
		<g>
			<path class="st1" d="M283.1,287.5v38.9c0,0-17.7,95.1-65.2,131.2c-6.9,5.2-16.9,0.9-17.9-7.7l-5.5-47.4
				c-1.3-10.8,0.2-21.8,4.2-32l26.8-67.7c0,0,29.8-19.6,42.4-30.6l0,0C276.3,272.2,283.1,279,283.1,287.5z"/>
		</g>
		<g>
			<path class="st1" d="M200.1,332.9c2.2-1.7,5.2,0.8,3.8,3.3c-6.3,11.3-15.8,30.9-17.3,48.3c-1.5,17.2-1,41.6-0.5,56.4
				c0.1,3.2-4.1,4.3-5.6,1.5l-7.3-14c-3.1-5.9-4.6-12.6-4.3-19.3C169.6,390.6,174.4,353.2,200.1,332.9z"/>
		</g>
		<g>
			<path class="st1" d="M286.1,361.1v11.8c0,5.1-0.9,10.2-2.7,14.9c-3.8,10.2-12,28-25.3,39.9c-1.4,1.3-3.5-0.4-2.7-2.1
				c6.3-12.8,19.7-41.5,27.1-65.2C283.1,358.5,286.1,359,286.1,361.1z"/>
		</g>
		<g>
			<path class="st1" d="M471.9,373.4v52.1c0,3.9-3.2,7.1-7.1,7.1h-46.7c-4.6,0-8.8-2.4-11.1-6.4l-5.4-9.4c-5.1-8.8-3-20,4.9-26.3
				c12.2-9.8,32.2-22.1,57.7-24.1C468.3,366,471.9,369.2,471.9,373.4z"/>
		</g>
		<g>
			<g>
				<path class="st1" d="M463.3,536.1h-33.2c-8.4,0-15.2-6.8-15.2-15.2v-60.5c0-8.4,6.8-15.2,15.2-15.2h33.2c4.8,0,8.6,3.9,8.6,8.6
					v73.8C471.9,532.3,468,536.1,463.3,536.1z"/>
			</g>
		</g>
		<g>
			<path class="st1" d="M347.3,404.9l21.5,24.4c9,10.3,14,23.5,14,37.2v29.7c0,2.3-2.7,3.6-4.5,2.1l-18.7-16.1
				c-10.8-9.3-17-22.9-17-37.1v-38.3C342.5,404.1,345.6,403,347.3,404.9z"/>
		</g>
		<g>
			<path class="st1" d="M350.8,489.1l21.3,19.7c6.8,6.3,10.7,15.3,10.7,24.6v22.3c0,4.5-5.5,6.6-8.5,3.4l-21.9-23.2
				c-6.3-6.7-9.9-15.6-9.9-24.9v-18.2C342.5,488.4,347.6,486.1,350.8,489.1z"/>
		</g>
		<g>
			<g>
				<path class="st1" d="M527.2,40.6l-16.9,22c-3.2,4.2-5.7,9-7.4,14L482,140.8c-0.2,0.7-0.4,1.5-0.4,2.3l0,0
					c0,7.2,9.2,10.1,13.3,4.2C511.6,123.7,537.5,80,532.5,42C532.2,39.4,528.8,38.5,527.2,40.6z"/>
			</g>
		</g>
		<g>
			<g>
				<path class="st1" d="M627.3,106.9l-68.6-33.8c-7.3-3.6-16,0.5-17.9,8.4c-2.5,10.3-7,24.6-14.4,38.9c-3.8,7.3,2.4,15.8,10.5,14.4
					l88.7-16.1C631.6,117.6,632.7,109.6,627.3,106.9z"/>
			</g>
		</g>
		<g>
			<g>
				<path class="st1" d="M595.6,140.4c0,0,50.2-25.1,85.5-9.4c35.3,15.7,76.9,42.4,55.7,164c0,0-55.7-41.6-63.6-72.2
					C665.4,192.2,631.7,142.7,595.6,140.4z"/>
			</g>
		</g>
		<g>
			<g>
				<path class="st1" d="M676.9,287.5v38.9c0,0,17.7,95.1,65.2,131.2c6.9,5.2,16.9,0.9,17.9-7.7l5.5-47.4c1.3-10.8-0.2-21.8-4.2-32
					l-26.8-67.7c0,0-29.8-19.6-42.4-30.6h0C683.7,272.2,676.9,279,676.9,287.5z"/>
			</g>
		</g>
		<g>
			<g>
				<path class="st1" d="M759.9,332.9c-2.2-1.7-5.2,0.8-3.8,3.3c6.3,11.3,15.8,30.9,17.3,48.3c1.5,17.2,1,41.6,0.5,56.4
					c-0.1,3.2,4.1,4.3,5.6,1.5l7.3-14c3.1-5.9,4.6-12.6,4.3-19.3C790.4,390.6,785.6,353.2,759.9,332.9z"/>
			</g>
		</g>
		<g>
			<g>
				<path class="st1" d="M673.9,361.1v11.8c0,5.1,0.9,10.2,2.7,14.9c3.8,10.2,12,28,25.3,39.9c1.4,1.3,3.5-0.4,2.7-2.1
					c-6.3-12.8-19.7-41.5-27.1-65.2C676.9,358.5,673.9,359,673.9,361.1z"/>
			</g>
		</g>
		<g>
			<g>
				<path class="st1" d="M488.1,373.4v52.1c0,3.9,3.2,7.1,7.1,7.1h46.7c4.6,0,8.8-2.4,11.1-6.4l5.4-9.4c5.1-8.8,3-20-4.9-26.3
					c-12.2-9.8-32.2-22.1-57.7-24.1C491.7,366,488.1,369.2,488.1,373.4z"/>
			</g>
		</g>
		<g>
			<g>
				<path class="st1" d="M496.7,536.1h33.2c8.4,0,15.2-6.8,15.2-15.2v-60.5c0-8.4-6.8-15.2-15.2-15.2h-33.2c-4.8,0-8.6,3.9-8.6,8.6
					v73.8C488.1,532.3,492,536.1,496.7,536.1z"/>
			</g>
		</g>
		<g>
			<g>
				<path class="st1" d="M612.7,404.9l-21.5,24.4c-9,10.3-14,23.5-14,37.2v29.7c0,2.3,2.7,3.6,4.5,2.1l18.7-16.1
					c10.8-9.3,17-22.9,17-37.1v-38.3C617.5,404.1,614.4,403,612.7,404.9z"/>
			</g>
		</g>
		<g>
			<g>
				<path class="st1" d="M609.2,489.1L588,508.8c-6.8,6.3-10.7,15.3-10.7,24.6v22.3c0,4.5,5.5,6.6,8.5,3.4l21.9-23.2
					c6.3-6.7,9.9-15.6,9.9-24.9v-18.2C617.5,488.4,612.4,486.1,609.2,489.1z"/>
			</g>
		</g>
		<g>
			<path class="st1" d="M471.5,296.4v48.7c0,3.7-2.7,6.9-6.6,7.8l-28.2,6.5c-14.5,3.4-37.7,14.3-37.7,14.3
				c-8.1,8.3-48.7-58.4-16.8-58.4l80.6-27C467.7,288.3,471.5,291.9,471.5,296.4z"/>
		</g>
		<g>
			<g>
				<path class="st1" d="M487.8,296.4v48.7c0,3.7,2.7,6.9,6.6,7.8l28.2,6.5c14.5,3.4,37.7,14.3,37.7,14.3
					c8.1,8.3,50.2-58.4,16.8-58.4l-80.6-27C491.7,288.3,487.8,291.9,487.8,296.4z"/>
			</g>
		</g>
	</g>
</g>
</svg>
