<?xml version="1.0" encoding="utf-8"?>
<!-- Generator: Adobe Illustrator 27.2.0, SVG Export Plug-In . SVG Version: 6.00 Build 0)  -->
<svg version="1.1" id="Capa_1" xmlns="http://www.w3.org/2000/svg" xmlns:xlink="http://www.w3.org/1999/xlink" x="0px" y="0px"
	 viewBox="0 0 100 100" style="enable-background:new 0 0 100 100;" xml:space="preserve">
<style type="text/css">
	.st0{fill:#BDEB00;}
</style>
<g id="mO7noH_00000132809711065820494230000008800246660261908637_">
	<g>
		<path class="st0" d="M1087.1-257.8c-1,1.1-2,2.2-3.1,3.3c-1.3,1.3-3,1.4-4.2,0.3c-1.1-1.1-1.1-2.9,0.1-4.2
			c2.7-2.8,5.5-5.5,8.3-8.3c1.3-1.2,2.9-1.3,4.2,0c2.8,2.8,5.6,5.5,8.4,8.4c1.2,1.2,1.2,3,0.1,4.1s-2.8,1.1-4.1-0.1
			c-0.6-0.5-1.2-1.1-1.7-1.7s-1-1.2-1.4-1.8c-0.1,0.1-0.2,0.2-0.4,0.2c0,11.3,0,22.6,0,34.3c1.2-1.1,2.2-2.2,3.2-3.2
			c1.5-1.5,3.2-1.7,4.4-0.5c1.2,1.2,1.1,2.9-0.3,4.4c-2.6,2.6-5.2,5.2-7.8,7.8c-1.5,1.5-3.1,1.5-4.6,0c-2.7-2.6-5.3-5.3-7.9-7.9
			c-1.4-1.4-1.4-3.2-0.3-4.3c1.2-1.2,2.9-1,4.3,0.4c1,1,2,2.1,3.3,3.5c0-11.8,0-23.1,0-34.4C1087.3-257.6,1087.2-257.7,1087.1-257.8
			z"/>
		<path class="st0" d="M1123-259.2c-5.2,0-10.3,0-15.5,0c-1.4,0-2.4-0.6-2.8-1.9c-0.4-1.2-0.1-2.3,1-3.1c0.5-0.3,1.2-0.6,1.8-0.6
			c10.3,0,20.6,0,30.9,0c1.8,0,2.9,1.1,3,2.7c0,1.7-1.1,2.8-3,2.8C1133.3-259.2,1128.1-259.2,1123-259.2z"/>
		<path class="st0" d="M1123.2-236.3c5.1,0,10.2,0,15.3,0c1.6,0,2.6,0.8,2.8,2.2c0.3,1.4-0.4,2.7-1.7,3.2c-0.5,0.2-1,0.2-1.5,0.2
			c-10.2,0-20.3,0-30.5,0c-2,0-3.2-1.1-3.1-2.9c0-1.7,1.2-2.7,3.2-2.7C1112.9-236.3,1118.1-236.3,1123.2-236.3z"/>
		<path class="st0" d="M1117.4-216.5c-3.2,0-6.4,0-9.6,0c-2,0-3.2-1.1-3.2-2.8s1.2-2.8,3.2-2.8c6.4,0,12.7,0,19.1,0
			c2,0,3.2,1.1,3.2,2.8c0,1.6-1.3,2.7-3.2,2.7C1123.8-216.5,1120.6-216.5,1117.4-216.5z"/>
		<path class="st0" d="M1117.3-245c-3.1,0-6.3,0-9.4,0c-2.2,0-3.4-1-3.3-2.8c0-1.7,1.2-2.7,3.3-2.7c6.3,0,12.6,0,19,0
			c2,0,3.3,1.1,3.3,2.7c0,1.7-1.2,2.8-3.2,2.8C1123.7-245,1120.5-245,1117.3-245z"/>
	</g>
</g>
<g id="mO7noH_00000078760220005124974230000016287874013429652874_">
	<g>
		<path class="st0" d="M26.7,33.4c-1,1.1-2,2.3-3.1,3.3c-1.3,1.3-3,1.4-4.2,0.3c-1.2-1.1-1.1-2.9,0.1-4.2c2.8-2.8,5.5-5.6,8.3-8.3
			c1.3-1.3,2.9-1.3,4.2,0c2.8,2.8,5.7,5.6,8.4,8.4c1.2,1.3,1.2,3,0.1,4.1c-1.2,1.1-2.8,1.1-4.1-0.1c-0.6-0.6-1.2-1.1-1.7-1.7
			c-0.5-0.6-1-1.2-1.5-1.8c-0.1,0.1-0.2,0.2-0.4,0.2c0,11.4,0,22.8,0,34.6C34,67,35,66,36.1,65c1.5-1.5,3.2-1.7,4.4-0.5
			c1.2,1.2,1.1,3-0.4,4.4c-2.6,2.6-5.3,5.3-7.9,7.9c-1.5,1.5-3.1,1.5-4.7,0c-2.7-2.7-5.4-5.3-8-8c-1.4-1.4-1.4-3.2-0.3-4.3
			c1.2-1.2,2.9-1,4.3,0.4c1,1,2,2.1,3.3,3.5c0-11.9,0-23.3,0-34.7C26.9,33.6,26.8,33.5,26.7,33.4z"/>
		<path class="st0" d="M62.9,32c-5.2,0-10.4,0-15.6,0c-1.4,0-2.4-0.6-2.8-1.9c-0.4-1.2-0.1-2.4,1-3.1c0.5-0.3,1.2-0.6,1.8-0.6
			c10.4,0,20.8,0,31.2,0c1.8,0,3,1.1,3,2.8c0,1.7-1.1,2.8-3,2.9C73.3,32.1,68.1,32,62.9,32z"/>
		<path class="st0" d="M63.1,55.1c5.2,0,10.3,0,15.5,0c1.6,0,2.6,0.8,2.9,2.2s-0.4,2.7-1.7,3.2c-0.5,0.2-1,0.2-1.5,0.2
			c-10.3,0-20.5,0-30.8,0c-2,0-3.2-1.1-3.2-2.9c0-1.7,1.2-2.7,3.2-2.7C52.7,55.1,57.9,55.1,63.1,55.1z"/>
		<path class="st0" d="M57.2,75.1c-3.2,0-6.4,0-9.6,0c-2,0-3.3-1.1-3.3-2.8c0-1.8,1.2-2.8,3.2-2.8c6.4,0,12.9,0,19.3,0
			c2,0,3.3,1.1,3.2,2.9c0,1.7-1.3,2.7-3.2,2.8C63.7,75.1,60.4,75.1,57.2,75.1z"/>
		<path class="st0" d="M57.2,46.4c-3.2,0-6.3,0-9.5,0c-2.2,0-3.4-1.1-3.4-2.8s1.2-2.8,3.3-2.8c6.4,0,12.8,0,19.1,0
			c2,0,3.3,1.1,3.3,2.8s-1.2,2.8-3.2,2.8C63.6,46.4,60.4,46.4,57.2,46.4z"/>
	</g>
</g>
</svg>
